<?xml version="1.0" encoding="UTF-8" standalone="no"?>
<!-- Created with Inkscape (http://www.inkscape.org/) -->

<svg
   xmlns:dc="http://purl.org/dc/elements/1.1/"
   xmlns:cc="http://creativecommons.org/ns#"
   xmlns:rdf="http://www.w3.org/1999/02/22-rdf-syntax-ns#"
   xmlns:svg="http://www.w3.org/2000/svg"
   xmlns="http://www.w3.org/2000/svg"
   xmlns:sodipodi="http://sodipodi.sourceforge.net/DTD/sodipodi-0.dtd"
   xmlns:inkscape="http://www.inkscape.org/namespaces/inkscape"
   width="28.222223mm"
   height="28.217369mm"
   viewBox="0 0 100 99.982803"
   id="svg7976"
   version="1.1"
   inkscape:version="0.91 r13725"
   sodipodi:docname="24-7.svg">
  <defs
     id="defs7978" />
  <sodipodi:namedview
     id="base"
     pagecolor="#ffffff"
     bordercolor="#666666"
     borderopacity="1.0"
     inkscape:pageopacity="0.0"
     inkscape:pageshadow="2"
     inkscape:zoom="0.35"
     inkscape:cx="-613.57143"
     inkscape:cy="-261.43717"
     inkscape:document-units="px"
     inkscape:current-layer="layer1"
     showgrid="false"
     fit-margin-top="0"
     fit-margin-left="0"
     fit-margin-right="0"
     fit-margin-bottom="0"
     inkscape:window-width="1920"
     inkscape:window-height="1001"
     inkscape:window-x="-9"
     inkscape:window-y="-9"
     inkscape:window-maximized="1" />
  <metadata
     id="metadata7981">
    <rdf:RDF>
      <cc:Work
         rdf:about="">
        <dc:format>image/svg+xml</dc:format>
        <dc:type
           rdf:resource="http://purl.org/dc/dcmitype/StillImage" />
        <dc:title></dc:title>
      </cc:Work>
    </rdf:RDF>
  </metadata>
  <g
     inkscape:label="Ebene 1"
     inkscape:groupmode="layer"
     id="layer1"
     transform="translate(-221.42857,-170.94223)">
    <path
       style="opacity:1;fill:none;fill-opacity:1;stroke:#000000;stroke-width:1.93353546;stroke-linecap:butt;stroke-miterlimit:4;stroke-dasharray:none;stroke-dashoffset:0;stroke-opacity:1"
       d="m 238.23468,171.909 66.38779,0 c 8.77499,0 15.83934,7.06434 15.83934,15.83934 l 0,66.3706 c 0,8.77499 -7.06435,15.83933 -15.83934,15.83933 l -66.38779,0 c -8.77499,0 -15.83934,-7.06434 -15.83934,-15.83933 l 0,-66.3706 c 0,-8.775 7.06435,-15.83934 15.83934,-15.83934 z"
       id="rect5415"
       inkscape:connector-curvature="0" />
    <g
       style="font-style:normal;font-weight:normal;font-size:35.8176918px;line-height:125%;font-family:sans-serif;letter-spacing:0px;word-spacing:0px;fill:#000000;fill-opacity:1;stroke:none;stroke-width:1px;stroke-linecap:butt;stroke-linejoin:miter;stroke-opacity:1"
       id="text5423">
      <path
         d="m 233.82147,229.95002 13.87105,0 0,3.3448 -18.65214,0 0,-3.3448 q 2.26266,-2.34135 6.15835,-6.2764 3.91538,-3.95472 4.91882,-5.09589 1.90849,-2.1446 2.65615,-3.62024 0.76734,-1.49532 0.76734,-2.93162 0,-2.34135 -1.65272,-3.81699 -1.63305,-1.47565 -4.26953,-1.47565 -1.86915,0 -3.95472,0.64929 -2.06591,0.64928 -4.42693,1.96752 l 0,-4.01375 q 2.40038,-0.96409 4.48595,-1.45597 2.08558,-0.49188 3.817,-0.49188 4.56466,0 7.27984,2.28233 2.71518,2.28233 2.71518,6.09933 0,1.81012 -0.68863,3.44316 -0.66896,1.61337 -2.45941,3.817 -0.49188,0.57058 -3.12836,3.30544 -2.63648,2.71519 -7.43724,7.61432 z"
         style="font-size:40.2949028px"
         id="path8536"
         inkscape:connector-curvature="0" />
      <path
         d="m 266.97426,207.38252 -10.03438,15.68117 10.03438,0 0,-15.68117 z m -1.04279,-3.46285 4.99751,0 0,19.14402 4.19083,0 0,3.30544 -4.19083,0 0,6.92569 -3.95472,0 0,-6.92569 -13.26112,0 0,-3.83667 12.21833,-18.61279 z"
         style="font-size:40.2949028px"
         id="path8538"
         inkscape:connector-curvature="0" />
      <path
         d="m 287.63327,203.91967 3.34479,0 -10.23113,33.11344 -3.34479,0 10.23113,-33.11344 z"
         style="font-size:40.2949028px"
         id="path8540"
         inkscape:connector-curvature="0" />
      <path
         d="m 294.32285,203.91967 18.88824,0 0,1.69207 -10.66399,27.68308 -4.15147,0 10.03437,-26.03035 -14.10715,0 0,-3.3448 z"
         style="font-size:40.2949028px"
         id="path8542"
         inkscape:connector-curvature="0" />
    </g>
  </g>
</svg>
