<?xml version="1.0" encoding="UTF-8" standalone="no"?>
<!-- Created with Inkscape (http://www.inkscape.org/) -->

<svg
   xmlns:dc="http://purl.org/dc/elements/1.1/"
   xmlns:cc="http://creativecommons.org/ns#"
   xmlns:rdf="http://www.w3.org/1999/02/22-rdf-syntax-ns#"
   xmlns:svg="http://www.w3.org/2000/svg"
   xmlns="http://www.w3.org/2000/svg"
   xmlns:sodipodi="http://sodipodi.sourceforge.net/DTD/sodipodi-0.dtd"
   xmlns:inkscape="http://www.inkscape.org/namespaces/inkscape"
   width="28.222223mm"
   height="28.217371mm"
   viewBox="0 0 100 99.98281"
   id="svg8572"
   version="1.1"
   inkscape:version="0.91 r13725"
   sodipodi:docname="3DP.svg">
  <defs
     id="defs8574" />
  <sodipodi:namedview
     id="base"
     pagecolor="#ffffff"
     bordercolor="#666666"
     borderopacity="1.0"
     inkscape:pageopacity="0.0"
     inkscape:pageshadow="2"
     inkscape:zoom="0.35"
     inkscape:cx="-576.42858"
     inkscape:cy="-184.29431"
     inkscape:document-units="px"
     inkscape:current-layer="layer1"
     showgrid="false"
     fit-margin-top="0"
     fit-margin-left="0"
     fit-margin-right="0"
     fit-margin-bottom="0"
     inkscape:window-width="1920"
     inkscape:window-height="1001"
     inkscape:window-x="-9"
     inkscape:window-y="-9"
     inkscape:window-maximized="1" />
  <metadata
     id="metadata8577">
    <rdf:RDF>
      <cc:Work
         rdf:about="">
        <dc:format>image/svg+xml</dc:format>
        <dc:type
           rdf:resource="http://purl.org/dc/dcmitype/StillImage" />
        <dc:title></dc:title>
      </cc:Work>
    </rdf:RDF>
  </metadata>
  <g
     inkscape:label="Ebene 1"
     inkscape:groupmode="layer"
     id="layer1"
     transform="translate(-184.28572,-248.08508)">
    <rect
       ry="15.839339"
       y="249.05185"
       x="185.25249"
       height="98.049278"
       width="98.066467"
       id="rect5457"
       style="opacity:1;fill:none;fill-opacity:1;stroke:#000000;stroke-width:1.93353546;stroke-linecap:butt;stroke-miterlimit:4;stroke-dasharray:none;stroke-dashoffset:0;stroke-opacity:1" />
    <path
       style="display:inline;fill:none;fill-rule:evenodd;stroke:#000000;stroke-width:2.27993965;stroke-linecap:butt;stroke-linejoin:miter;stroke-miterlimit:4;stroke-dasharray:none;stroke-opacity:1"
       d="m 206.0145,271.49405 -0.097,52.75462 -7.85685,11.44578 67.21967,0 -7.16345,-10.94253 0.85857,-52.83371 -54.15215,0.30563"
       id="path4141"
       inkscape:connector-curvature="0"
       sodipodi:nodetypes="ccccccc" />
    <path
       style="display:inline;fill:#333333;fill-opacity:1;fill-rule:evenodd;stroke:#333333;stroke-width:0.7599799px;stroke-linecap:butt;stroke-linejoin:miter;stroke-opacity:1"
       d="m 257.56916,332.05845 -51.59633,0 12.48403,-17.83032 27.48484,-0.20764 z"
       id="path4251"
       inkscape:connector-curvature="0"
       sodipodi:nodetypes="ccccc" />
    <path
       style="display:inline;fill:#ffffff;fill-opacity:1;fill-rule:evenodd;stroke:#000000;stroke-width:1.51995981;stroke-linecap:butt;stroke-linejoin:miter;stroke-miterlimit:4;stroke-dasharray:none;stroke-opacity:1"
       d="m 269.6989,280.58406 c 4.40284,-3.96688 6.03948,-10.89451 3.11175,-16.18695 -2.6066,-4.82133 -8.42273,-7.75047 -13.83569,-6.45405 -5.08905,0.89537 -9.04156,5.2671 -9.95898,10.26954 -1.37505,6.1637 2.46938,13.37199 8.8501,14.71277 4.02914,1.13658 8.5978,0.40519 11.83282,-2.34131 z"
       id="path4259"
       inkscape:connector-curvature="0" />
    <path
       style="display:inline;fill:none;fill-rule:evenodd;stroke:#000000;stroke-width:2.27993965;stroke-linecap:butt;stroke-linejoin:miter;stroke-miterlimit:4;stroke-dasharray:none;stroke-opacity:1"
       d="m 206.05953,296.97868 51.90969,0.20763"
       id="path4264-8"
       inkscape:connector-curvature="0"
       sodipodi:nodetypes="cc" />
    <path
       style="display:inline;fill:none;fill-rule:evenodd;stroke:#000000;stroke-width:0.7599799px;stroke-linecap:butt;stroke-linejoin:miter;stroke-opacity:1"
       d="m 234.00638,289.85465 c 1.87868,-6.7504 5.57028,-12.77472 9.20727,-18.69476 1.75922,-2.83627 3.95864,-5.35183 6.36171,-7.6559 1.17013,-1.20773 2.4508,-2.33194 3.96166,-3.09525"
       id="path4330"
       inkscape:connector-curvature="0" />
    <path
       style="display:inline;fill:#333333;fill-opacity:1;fill-rule:evenodd;stroke:#333333;stroke-width:2.27993965;stroke-linecap:round;stroke-linejoin:round;stroke-miterlimit:4;stroke-dasharray:none;stroke-opacity:1"
       id="path4266-8"
       sodipodi:type="arc"
       sodipodi:cx="232.50754"
       sodipodi:cy="293.40341"
       sodipodi:rx="3.1145811"
       sodipodi:ry="3.1145811"
       sodipodi:start="6.2117315"
       sodipodi:end="6.2107716"
       sodipodi:open="true"
       d="m 235.61417,293.18105 a 3.1145811,3.1145811 0 0 1 -2.88353,3.32894 3.1145811,3.1145811 0 0 1 -3.32963,-2.88273 3.1145811,3.1145811 0 0 1 2.88193,-3.33032 3.1145811,3.1145811 0 0 1 3.33102,2.88113" />
    <g
       id="g4456"
       transform="translate(-190.62208,47.464914)">
      <path
         d="m 423.72003,243.65377 a 0.05418298,0.10204961 0 0 1 -0.0502,0.10907 0.05418298,0.10204961 0 0 1 -0.0579,-0.0945 0.05418298,0.10204961 0 0 1 0.0501,-0.10912 0.05418298,0.10204961 0 0 1 0.058,0.0944"
         sodipodi:open="true"
         sodipodi:end="6.2107716"
         sodipodi:start="6.2117315"
         sodipodi:ry="0.10204961"
         sodipodi:rx="0.05418298"
         sodipodi:cy="243.66106"
         sodipodi:cx="423.66599"
         sodipodi:type="arc"
         id="path4268"
         style="display:inline;fill:#ffffff;fill-opacity:1;fill-rule:evenodd;stroke:#ffffff;stroke-width:1.15469456;stroke-linecap:round;stroke-linejoin:round;stroke-miterlimit:4;stroke-dasharray:none;stroke-opacity:1" />
      <path
         d="m 425.18768,244.66042 a 0.05418298,0.10204961 0 0 1 -0.0502,0.10908 0.05418298,0.10204961 0 0 1 -0.0579,-0.0945 0.05418298,0.10204961 0 0 1 0.0501,-0.10911 0.05418298,0.10204961 0 0 1 0.058,0.0944"
         sodipodi:open="true"
         sodipodi:end="6.2107716"
         sodipodi:start="6.2117315"
         sodipodi:ry="0.10204961"
         sodipodi:rx="0.05418298"
         sodipodi:cy="244.66771"
         sodipodi:cx="425.13364"
         sodipodi:type="arc"
         id="path4268-7"
         style="display:inline;fill:#ffffff;fill-opacity:1;fill-rule:evenodd;stroke:#ffffff;stroke-width:1.15469456;stroke-linecap:round;stroke-linejoin:round;stroke-miterlimit:4;stroke-dasharray:none;stroke-opacity:1" />
      <path
         d="m 425.43402,246.44708 a 0.05418298,0.10204961 0 0 1 -0.0502,0.10907 0.05418298,0.10204961 0 0 1 -0.0579,-0.0944 0.05418298,0.10204961 0 0 1 0.0501,-0.10912 0.05418298,0.10204961 0 0 1 0.0579,0.0944"
         sodipodi:open="true"
         sodipodi:end="6.2107716"
         sodipodi:start="6.2117315"
         sodipodi:ry="0.10204961"
         sodipodi:rx="0.05418298"
         sodipodi:cy="246.45436"
         sodipodi:cx="425.37997"
         sodipodi:type="arc"
         id="path4268-7-4"
         style="display:inline;fill:#ffffff;fill-opacity:1;fill-rule:evenodd;stroke:#ffffff;stroke-width:1.15469456;stroke-linecap:round;stroke-linejoin:round;stroke-miterlimit:4;stroke-dasharray:none;stroke-opacity:1" />
      <path
         d="m 421.94543,243.90687 a 0.05418298,0.10204961 0 0 1 -0.0502,0.10907 0.05418298,0.10204961 0 0 1 -0.0579,-0.0944 0.05418298,0.10204961 0 0 1 0.0501,-0.10912 0.05418298,0.10204961 0 0 1 0.058,0.0944"
         sodipodi:open="true"
         sodipodi:end="6.2107716"
         sodipodi:start="6.2117315"
         sodipodi:ry="0.10204961"
         sodipodi:rx="0.05418298"
         sodipodi:cy="243.91415"
         sodipodi:cx="421.89139"
         sodipodi:type="arc"
         id="path4268-7-3"
         style="display:inline;fill:#ffffff;fill-opacity:1;fill-rule:evenodd;stroke:#ffffff;stroke-width:1.15469456;stroke-linecap:round;stroke-linejoin:round;stroke-miterlimit:4;stroke-dasharray:none;stroke-opacity:1" />
      <path
         d="m 424.47589,247.9556 a 0.05418298,0.10204961 0 0 1 -0.0502,0.10908 0.05418298,0.10204961 0 0 1 -0.0579,-0.0945 0.05418298,0.10204961 0 0 1 0.0501,-0.10912 0.05418298,0.10204961 0 0 1 0.058,0.0944"
         sodipodi:open="true"
         sodipodi:end="6.2107716"
         sodipodi:start="6.2117315"
         sodipodi:ry="0.10204961"
         sodipodi:rx="0.05418298"
         sodipodi:cy="247.96289"
         sodipodi:cx="424.42184"
         sodipodi:type="arc"
         id="path4268-7-6"
         style="display:inline;fill:#ffffff;fill-opacity:1;fill-rule:evenodd;stroke:#ffffff;stroke-width:1.15469456;stroke-linecap:round;stroke-linejoin:round;stroke-miterlimit:4;stroke-dasharray:none;stroke-opacity:1" />
      <path
         d="m 422.62021,248.20866 a 0.05418298,0.10204961 0 0 1 -0.0502,0.10907 0.05418298,0.10204961 0 0 1 -0.0579,-0.0945 0.05418298,0.10204961 0 0 1 0.0501,-0.10912 0.05418298,0.10204961 0 0 1 0.058,0.0944"
         sodipodi:open="true"
         sodipodi:end="6.2107716"
         sodipodi:start="6.2117315"
         sodipodi:ry="0.10204961"
         sodipodi:rx="0.05418298"
         sodipodi:cy="248.21594"
         sodipodi:cx="422.56616"
         sodipodi:type="arc"
         id="path4268-7-37"
         style="display:inline;fill:#ffffff;fill-opacity:1;fill-rule:evenodd;stroke:#ffffff;stroke-width:1.15469456;stroke-linecap:round;stroke-linejoin:round;stroke-miterlimit:4;stroke-dasharray:none;stroke-opacity:1" />
      <path
         d="m 421.10196,247.28083 a 0.05418298,0.10204961 0 0 1 -0.0502,0.10907 0.05418298,0.10204961 0 0 1 -0.0579,-0.0945 0.05418298,0.10204961 0 0 1 0.0501,-0.10912 0.05418298,0.10204961 0 0 1 0.0579,0.0944"
         sodipodi:open="true"
         sodipodi:end="6.2107716"
         sodipodi:start="6.2117315"
         sodipodi:ry="0.10204961"
         sodipodi:rx="0.05418298"
         sodipodi:cy="247.28812"
         sodipodi:cx="421.04791"
         sodipodi:type="arc"
         id="path4268-7-1"
         style="display:inline;fill:#ffffff;fill-opacity:1;fill-rule:evenodd;stroke:#ffffff;stroke-width:1.15469456;stroke-linecap:round;stroke-linejoin:round;stroke-miterlimit:4;stroke-dasharray:none;stroke-opacity:1" />
      <path
         d="m 420.93326,245.42515 a 0.05418298,0.10204961 0 0 1 -0.0502,0.10907 0.05418298,0.10204961 0 0 1 -0.0579,-0.0944 0.05418298,0.10204961 0 0 1 0.0501,-0.10912 0.05418298,0.10204961 0 0 1 0.058,0.0944"
         sodipodi:open="true"
         sodipodi:end="6.2107716"
         sodipodi:start="6.2117315"
         sodipodi:ry="0.10204961"
         sodipodi:rx="0.05418298"
         sodipodi:cy="245.43243"
         sodipodi:cx="420.87921"
         sodipodi:type="arc"
         id="path4268-7-8"
         style="display:inline;fill:#ffffff;fill-opacity:1;fill-rule:evenodd;stroke:#ffffff;stroke-width:1.15469456;stroke-linecap:round;stroke-linejoin:round;stroke-miterlimit:4;stroke-dasharray:none;stroke-opacity:1" />
    </g>
    <path
       style="display:inline;fill:none;fill-rule:evenodd;stroke:#000000;stroke-width:1.82395184;stroke-linecap:butt;stroke-linejoin:miter;stroke-miterlimit:4;stroke-dasharray:none;stroke-opacity:1"
       d="m 258.23667,325.29978 -9.25186,-13.81942 -33.4212,-0.11141 -10.03168,13.81942"
       id="path4335"
       inkscape:connector-curvature="0"
       sodipodi:nodetypes="cccc" />
    <path
       style="display:inline;fill:#333333;fill-opacity:1;fill-rule:evenodd;stroke:#333333;stroke-width:0.7599799px;stroke-linecap:butt;stroke-linejoin:miter;stroke-opacity:1"
       d="m 228.67756,296.58925 0,4.84819 8.05482,-0.0446 0,-4.87783"
       id="path4337"
       inkscape:connector-curvature="0"
       sodipodi:nodetypes="cccc" />
    <path
       style="display:inline;fill:#333333;fill-opacity:1;fill-rule:evenodd;stroke:#333333;stroke-width:0.7599799;stroke-linecap:butt;stroke-linejoin:miter;stroke-miterlimit:4;stroke-dasharray:none;stroke-opacity:1"
       d="m 231.85586,301.76916 0,0.54329 -0.31958,0.25568 0,0.67113 0.9268,0.51134 0.31959,0 0.95876,-0.47938 0,-0.70309 -0.28762,-0.31959 0,-0.73505"
       id="path4342-0"
       inkscape:connector-curvature="0"
       sodipodi:nodetypes="cccccccccc" />
    <path
       style="fill:#ffffff;fill-opacity:1;fill-rule:evenodd;stroke:#000000;stroke-width:0.7599799px;stroke-linecap:butt;stroke-linejoin:miter;stroke-opacity:1"
       d="m 215.95437,323.68052 32.76479,0 -10.60438,-19.16944 -5.57408,0 0,0.54381 -5.5741,0 z"
       id="path4178"
       inkscape:connector-curvature="0"
       sodipodi:nodetypes="ccccccc" />
  </g>
</svg>
