<?xml version="1.0" encoding="UTF-8" standalone="no"?>
<!-- Created with Inkscape (http://www.inkscape.org/) -->

<svg
   xmlns:dc="http://purl.org/dc/elements/1.1/"
   xmlns:cc="http://creativecommons.org/ns#"
   xmlns:rdf="http://www.w3.org/1999/02/22-rdf-syntax-ns#"
   xmlns:svg="http://www.w3.org/2000/svg"
   xmlns="http://www.w3.org/2000/svg"
   xmlns:sodipodi="http://sodipodi.sourceforge.net/DTD/sodipodi-0.dtd"
   xmlns:inkscape="http://www.inkscape.org/namespaces/inkscape"
   width="28.222221mm"
   height="28.217373mm"
   viewBox="0 0 99.999997 99.982817"
   id="svg5631"
   version="1.1"
   inkscape:version="0.91 r13725"
   sodipodi:docname="coding.svg">
  <defs
     id="defs5633" />
  <sodipodi:namedview
     id="base"
     pagecolor="#ffffff"
     bordercolor="#666666"
     borderopacity="1.0"
     inkscape:pageopacity="0.0"
     inkscape:pageshadow="2"
     inkscape:zoom="0.35"
     inkscape:cx="-427.85715"
     inkscape:cy="-390.00859"
     inkscape:document-units="px"
     inkscape:current-layer="layer1"
     showgrid="false"
     fit-margin-top="0"
     fit-margin-left="0"
     fit-margin-right="0"
     fit-margin-bottom="0"
     inkscape:window-width="1920"
     inkscape:window-height="1001"
     inkscape:window-x="-9"
     inkscape:window-y="-9"
     inkscape:window-maximized="1" />
  <metadata
     id="metadata5636">
    <rdf:RDF>
      <cc:Work
         rdf:about="">
        <dc:format>image/svg+xml</dc:format>
        <dc:type
           rdf:resource="http://purl.org/dc/dcmitype/StillImage" />
        <dc:title></dc:title>
      </cc:Work>
    </rdf:RDF>
  </metadata>
  <g
     inkscape:label="Ebene 1"
     inkscape:groupmode="layer"
     id="layer1"
     transform="translate(-35.714288,-42.370797)">
    <path
       inkscape:connector-curvature="0"
       style="opacity:1;fill:none;fill-opacity:1;stroke:#000000;stroke-width:1.93353546;stroke-linecap:butt;stroke-miterlimit:4;stroke-dasharray:none;stroke-dashoffset:0;stroke-opacity:1"
       d="m 52.520386,43.337565 66.387794,0 c 8.775,0 15.83934,7.064348 15.83934,15.839342 l 0,66.370603 c 0,8.77499 -7.06434,15.83934 -15.83934,15.83934 l -66.387794,0 c -8.77499,0 -15.83933,-7.06435 -15.83933,-15.83934 l 0,-66.370603 c 0,-8.774994 7.06434,-15.839342 15.83933,-15.839342 z"
       id="rect4400" />
    <g
       transform="translate(-230.73142,-50.991406)"
       style="font-style:normal;font-weight:normal;font-size:40px;line-height:125%;font-family:sans-serif;letter-spacing:0px;word-spacing:0px;fill:#000000;fill-opacity:1;stroke:none;stroke-width:0.1;stroke-linecap:butt;stroke-linejoin:miter;stroke-miterlimit:4;stroke-dasharray:none;stroke-opacity:1"
       id="text4414">
      <path
         inkscape:connector-curvature="0"
         d="m 278.65247,133.62683 7.25097,0 0,-25.02685 -7.88818,1.58203 0,-4.04297 7.84424,-1.58203 4.43847,0 0,29.06982 7.25098,0 0,3.73535 -18.89648,0 0,-3.73535 z"
         style="font-style:normal;font-variant:normal;font-weight:normal;font-stretch:normal;font-size:45px;font-family:sans-serif;-inkscape-font-specification:sans-serif;stroke-width:0.1;stroke-miterlimit:4;stroke-dasharray:none"
         id="path5607" />
      <path
         inkscape:connector-curvature="0"
         d="m 316.02795,107.47937 q -3.42773,0 -5.16357,3.38379 -1.71387,3.36182 -1.71387,10.12939 0,6.74561 1.71387,10.1294 1.73584,3.36181 5.16357,3.36181 3.44971,0 5.16358,-3.36181 1.73584,-3.38379 1.73584,-10.1294 0,-6.76757 -1.73584,-10.12939 -1.71387,-3.38379 -5.16358,-3.38379 z m 0,-3.51562 q 5.51514,0 8.41553,4.37255 2.92236,4.35059 2.92236,12.65625 0,8.2837 -2.92236,12.65625 -2.90039,4.35059 -8.41553,4.35059 -5.51513,0 -8.4375,-4.35059 -2.90039,-4.37255 -2.90039,-12.65625 0,-8.30566 2.90039,-12.65625 2.92237,-4.37255 8.4375,-4.37255 z"
         style="font-style:normal;font-variant:normal;font-weight:normal;font-stretch:normal;font-size:45px;font-family:sans-serif;-inkscape-font-specification:sans-serif;stroke-width:0.1;stroke-miterlimit:4;stroke-dasharray:none"
         id="path5609" />
      <path
         inkscape:connector-curvature="0"
         d="m 335.95715,133.62683 7.25098,0 0,-25.02685 -7.88818,1.58203 0,-4.04297 7.84423,-1.58203 4.43848,0 0,29.06982 7.25098,0 0,3.73535 -18.89649,0 0,-3.73535 z"
         style="font-style:normal;font-variant:normal;font-weight:normal;font-stretch:normal;font-size:45px;font-family:sans-serif;-inkscape-font-specification:sans-serif;stroke-width:0.1;stroke-miterlimit:4;stroke-dasharray:none"
         id="path5611" />
    </g>
    <g
       transform="translate(-230.73142,-50.991406)"
       style="font-style:normal;font-weight:normal;font-size:40px;line-height:125%;font-family:sans-serif;letter-spacing:0px;word-spacing:0px;fill:#000000;fill-opacity:1;stroke:none;stroke-width:1px;stroke-linecap:butt;stroke-linejoin:miter;stroke-opacity:1"
       id="text4420">
      <path
         inkscape:connector-curvature="0"
         d="m 288.58987,151.76509 q -3.42773,0 -5.16357,3.38379 -1.71387,3.36182 -1.71387,10.12939 0,6.74561 1.71387,10.1294 1.73584,3.36182 5.16357,3.36182 3.44971,0 5.16358,-3.36182 1.73584,-3.38379 1.73584,-10.1294 0,-6.76757 -1.73584,-10.12939 -1.71387,-3.38379 -5.16358,-3.38379 z m 0,-3.51562 q 5.51514,0 8.41553,4.37255 2.92236,4.35059 2.92236,12.65625 0,8.2837 -2.92236,12.65625 -2.90039,4.35059 -8.41553,4.35059 -5.51513,0 -8.4375,-4.35059 -2.90039,-4.37255 -2.90039,-12.65625 0,-8.30566 2.90039,-12.65625 2.92237,-4.37255 8.4375,-4.37255 z"
         style="font-size:45px"
         id="path5600" />
      <path
         inkscape:connector-curvature="0"
         d="m 308.51907,177.91255 7.25098,0 0,-25.02685 -7.88818,1.58203 0,-4.04297 7.84423,-1.58203 4.43848,0 0,29.06982 7.25098,0 0,3.73535 -18.89649,0 0,-3.73535 z"
         style="font-size:45px"
         id="path5602" />
      <path
         inkscape:connector-curvature="0"
         d="m 345.89456,151.76509 q -3.42773,0 -5.16357,3.38379 -1.71387,3.36182 -1.71387,10.12939 0,6.74561 1.71387,10.1294 1.73584,3.36182 5.16357,3.36182 3.44971,0 5.16358,-3.36182 1.73584,-3.38379 1.73584,-10.1294 0,-6.76757 -1.73584,-10.12939 -1.71387,-3.38379 -5.16358,-3.38379 z m 0,-3.51562 q 5.51514,0 8.41553,4.37255 2.92236,4.35059 2.92236,12.65625 0,8.2837 -2.92236,12.65625 -2.90039,4.35059 -8.41553,4.35059 -5.51513,0 -8.4375,-4.35059 -2.90039,-4.37255 -2.90039,-12.65625 0,-8.30566 2.90039,-12.65625 2.92237,-4.37255 8.4375,-4.37255 z"
         style="font-size:45px"
         id="path5604" />
    </g>
  </g>
</svg>
