<?xml version="1.0" encoding="UTF-8" standalone="no"?>
<!-- Created with Inkscape (http://www.inkscape.org/) -->

<svg
   xmlns:dc="http://purl.org/dc/elements/1.1/"
   xmlns:cc="http://creativecommons.org/ns#"
   xmlns:rdf="http://www.w3.org/1999/02/22-rdf-syntax-ns#"
   xmlns:svg="http://www.w3.org/2000/svg"
   xmlns="http://www.w3.org/2000/svg"
   xmlns:sodipodi="http://sodipodi.sourceforge.net/DTD/sodipodi-0.dtd"
   xmlns:inkscape="http://www.inkscape.org/namespaces/inkscape"
   width="28.222223mm"
   height="28.222223mm"
   viewBox="0 0 100 100"
   id="svg5021"
   version="1.1"
   inkscape:version="0.91 r13725"
   sodipodi:docname="kitchen.svg">
  <defs
     id="defs5023" />
  <sodipodi:namedview
     id="base"
     pagecolor="#ffffff"
     bordercolor="#666666"
     borderopacity="1.0"
     inkscape:pageopacity="0.0"
     inkscape:pageshadow="2"
     inkscape:zoom="0.35"
     inkscape:cx="-413.57141"
     inkscape:cy="-401.42857"
     inkscape:document-units="px"
     inkscape:current-layer="layer1"
     showgrid="false"
     fit-margin-top="0"
     fit-margin-left="0"
     fit-margin-right="0"
     fit-margin-bottom="0"
     inkscape:window-width="1920"
     inkscape:window-height="1001"
     inkscape:window-x="-9"
     inkscape:window-y="-9"
     inkscape:window-maximized="1" />
  <metadata
     id="metadata5026">
    <rdf:RDF>
      <cc:Work
         rdf:about="">
        <dc:format>image/svg+xml</dc:format>
        <dc:type
           rdf:resource="http://purl.org/dc/dcmitype/StillImage" />
        <dc:title></dc:title>
      </cc:Work>
    </rdf:RDF>
  </metadata>
  <g
     inkscape:label="Ebene 1"
     inkscape:groupmode="layer"
     id="layer1"
     transform="translate(-21.428552,-30.933631)">
    <rect
       ry="15.842089"
       y="31.900482"
       x="22.395403"
       height="98.066299"
       width="98.066299"
       id="rect4138"
       style="opacity:1;fill:none;fill-opacity:1;stroke:#000000;stroke-width:1.93370163;stroke-linecap:butt;stroke-miterlimit:4;stroke-dasharray:none;stroke-dashoffset:0;stroke-opacity:1" />
    <ellipse
       style="opacity:1;fill:none;fill-opacity:1;stroke:#000000;stroke-width:1.5;stroke-linecap:butt;stroke-miterlimit:4;stroke-dasharray:none;stroke-dashoffset:0;stroke-opacity:1"
       id="path4142"
       cx="71.777969"
       cy="80.164993"
       rx="32.072342"
       ry="5.9346461" />
    <path
       style="opacity:1;fill:none;fill-opacity:1;stroke:#000000;stroke-width:1.5;stroke-linecap:butt;stroke-miterlimit:4;stroke-dasharray:none;stroke-dashoffset:0;stroke-opacity:1"
       d="m 103.85033,116.165 c -1e-4,3.27761 -14.359301,5.93464 -32.072401,5.93464 -17.713,0 -32.0723,-2.65703 -32.0723,-5.93464"
       id="ellipse4144"
       inkscape:connector-curvature="0"
       sodipodi:nodetypes="csc" />
    <path
       style="fill:none;fill-rule:evenodd;stroke:#000000;stroke-width:1.5;stroke-linecap:butt;stroke-linejoin:miter;stroke-miterlimit:4;stroke-dasharray:none;stroke-opacity:1"
       d="m 39.706429,80.022918 0,36.160712"
       id="path4146"
       inkscape:connector-curvature="0" />
    <path
       style="fill:none;fill-rule:evenodd;stroke:#000000;stroke-width:1.5;stroke-linecap:butt;stroke-linejoin:miter;stroke-miterlimit:4;stroke-dasharray:none;stroke-opacity:1"
       d="m 103.84693,80.022918 0,36.160712"
       id="path4150"
       inkscape:connector-curvature="0" />
    <path
       style="opacity:1;fill:none;fill-opacity:1;stroke:#000000;stroke-width:2;stroke-linecap:butt;stroke-miterlimit:4;stroke-dasharray:none;stroke-dashoffset:0;stroke-opacity:1"
       d="m 39.339329,93.070278 c -3.6037,-0.44725 -6.4822,-1.74364 -6.4822,-3.19023 0,-1.44115 2.9037,-2.75606 6.4864,-3.20748"
       id="path4160"
       inkscape:connector-curvature="0"
       sodipodi:nodetypes="csc" />
    <path
       sodipodi:nodetypes="csc"
       inkscape:connector-curvature="0"
       id="path4163"
       d="m 103.98623,93.070278 c 3.6038,-0.44725 6.4823,-1.74364 6.4823,-3.19023 0,-1.44115 -2.9038,-2.75606 -6.4864,-3.20748"
       style="opacity:1;fill:none;fill-opacity:1;stroke:#000000;stroke-width:2;stroke-linecap:butt;stroke-miterlimit:4;stroke-dasharray:none;stroke-dashoffset:0;stroke-opacity:1" />
    <g
       id="g4173"
       transform="translate(-30.338371,-62.42857)">
      <path
         sodipodi:nodetypes="cssc"
         inkscape:connector-curvature="0"
         id="path4167"
         d="m 101.10714,102.2729 c 4.18154,8.06254 -0.45308,5.84327 -0.71432,11.42857 -0.25876,5.53255 3.49411,6.65186 3.21437,10.17857 -0.1686,2.12549 -3.616158,5.66965 -2.72327,9.77679"
         style="fill:none;fill-rule:evenodd;stroke:#000000;stroke-width:1.39999998;stroke-linecap:butt;stroke-linejoin:miter;stroke-miterlimit:4;stroke-dasharray:none;stroke-opacity:1" />
      <path
         style="fill:none;fill-rule:evenodd;stroke:#000000;stroke-width:1.39999998;stroke-linecap:butt;stroke-linejoin:miter;stroke-miterlimit:4;stroke-dasharray:none;stroke-opacity:1"
         d="m 85.107143,103.73716 c 4.181497,8.06254 -0.453057,5.84327 -0.714286,11.42857 -0.258762,5.53255 3.494033,6.65186 3.214293,10.17857 -0.1686,2.12549 -3.616079,5.66965 -2.723221,9.77679"
         id="path4169"
         inkscape:connector-curvature="0"
         sodipodi:nodetypes="cssc" />
      <path
         sodipodi:nodetypes="cssc"
         inkscape:connector-curvature="0"
         id="path4171"
         d="m 117.10714,103.73716 c 4.1815,8.06254 -0.45305,5.84327 -0.71428,11.42857 -0.25877,5.53255 3.49403,6.65186 3.21429,10.17857 -0.1686,2.12549 -3.61608,5.66965 -2.72322,9.77679"
         style="fill:none;fill-rule:evenodd;stroke:#000000;stroke-width:1.39999998;stroke-linecap:butt;stroke-linejoin:miter;stroke-miterlimit:4;stroke-dasharray:none;stroke-opacity:1" />
    </g>
    <path
       style="opacity:1;fill:none;fill-opacity:1;stroke:#000000;stroke-width:1.5;stroke-linecap:butt;stroke-miterlimit:4;stroke-dasharray:none;stroke-dashoffset:0;stroke-opacity:1"
       d="m 48.160229,84.149818 c 5.8619,-1.17998 14.2731,-1.91947 23.6177,-1.91947 9.3595,0 17.7825,0.74184 23.6456,1.92509"
       id="ellipse4192"
       inkscape:connector-curvature="0"
       sodipodi:nodetypes="csc" />
    <path
       style="fill:#a0a0a0;stroke:none;stroke-width:1px;stroke-linecap:butt;stroke-linejoin:miter;stroke-opacity:1"
       d="m 67.806129,85.282728 c -4.9118,-0.11165 -9.6189,-0.44101 -14.0179,-0.98083 -1.1836,-0.14525 -1.2309,-0.12523 0.8929,-0.37832 8.5408,-1.01783 19.5245,-1.20227 29.0848,-0.48839 2.9489,0.2202 7.0219,0.66284 6.8263,0.74186 -0.1248,0.0504 -2.1969,0.30017 -3.8129,0.45954 -5.7011,0.56223 -12.4912,0.79347 -18.9732,0.64614 z"
       id="path4205"
       inkscape:connector-curvature="0" />
  </g>
</svg>
