<?xml version="1.0" encoding="UTF-8" standalone="no"?>
<!-- Created with Inkscape (http://www.inkscape.org/) -->

<svg
   xmlns:dc="http://purl.org/dc/elements/1.1/"
   xmlns:cc="http://creativecommons.org/ns#"
   xmlns:rdf="http://www.w3.org/1999/02/22-rdf-syntax-ns#"
   xmlns:svg="http://www.w3.org/2000/svg"
   xmlns="http://www.w3.org/2000/svg"
   xmlns:sodipodi="http://sodipodi.sourceforge.net/DTD/sodipodi-0.dtd"
   xmlns:inkscape="http://www.inkscape.org/namespaces/inkscape"
   width="28.222223mm"
   height="28.217371mm"
   viewBox="0 0 100 99.98281"
   id="svg6212"
   version="1.1"
   inkscape:version="0.92.2 (5c3e80d, 2017-08-06)"
   sodipodi:docname="metalworking.svg"
   inkscape:export-filename="C:\Users\frese\Downloads\CoMS\icons\metalworking.png"
   inkscape:export-xdpi="270.04639"
   inkscape:export-ydpi="270.04639">
  <defs
     id="defs6214" />
  <sodipodi:namedview
     id="base"
     pagecolor="#ffffff"
     bordercolor="#666666"
     borderopacity="1.0"
     inkscape:pageopacity="0.0"
     inkscape:pageshadow="2"
     inkscape:zoom="1.979899"
     inkscape:cx="-28.741559"
     inkscape:cy="54.180861"
     inkscape:document-units="px"
     inkscape:current-layer="layer1"
     showgrid="false"
     inkscape:window-width="716"
     inkscape:window-height="403"
     inkscape:window-x="195"
     inkscape:window-y="202"
     inkscape:window-maximized="0"
     fit-margin-top="0"
     fit-margin-left="0"
     fit-margin-right="0"
     fit-margin-bottom="0" />
  <metadata
     id="metadata6217">
    <rdf:RDF>
      <cc:Work
         rdf:about="">
        <dc:format>image/svg+xml</dc:format>
        <dc:type
           rdf:resource="http://purl.org/dc/dcmitype/StillImage" />
        <dc:title />
      </cc:Work>
    </rdf:RDF>
  </metadata>
  <g
     inkscape:label="Ebene 1"
     inkscape:groupmode="layer"
     id="layer1"
     transform="translate(-15.71428,-16.656519)">
    <rect
       style="opacity:1;fill:none;fill-opacity:1;stroke:#000000;stroke-width:1.93353546;stroke-linecap:butt;stroke-miterlimit:4;stroke-dasharray:none;stroke-dashoffset:0;stroke-opacity:1"
       id="rect4424"
       width="98.066467"
       height="98.049278"
       x="16.681047"
       y="17.623287"
       ry="15.839339" />
    <path
       style="fill:#000000;stroke:#040404;stroke-width:1.125;stroke-miterlimit:4;stroke-dasharray:none;stroke-opacity:1"
       d="M 49.997928,88.787722 C 25.662557,72.412888 22.78012,70.206397 22.52151,67.754694 22.250207,65.182616 22.5502,64.915522 27.443385,63.373091 l 5.210794,-1.642556 V 51.133982 40.537439 l -5.625,-2.839491 c -4.541466,-2.292525 -5.625,-3.276197 -5.625,-5.106572 0,-2.835553 0.445069,-2.960184 15.46875,-4.331756 l 12.187499,-1.112644 25.78125,11.027775 c 14.179687,6.065269 27.197942,11.628019 28.929452,12.36165 1.73151,0.73364 5.9867,3.407334 5.74415,3.649884 C 109.27274,54.428835 93.21754,47.23372 77.548887,40.48882 L 49.060428,28.225354 37.107304,29.328567 c -6.574219,0.606768 -11.927025,1.367015 -11.895131,1.689421 0.03187,0.322416 11.926181,6.416101 26.431752,13.541532 l 26.373778,12.955312 14.115112,-2.032594 c 18.783265,-2.704809 17.811105,-2.69654 18.171455,-0.154565 0.44331,3.127228 -0.99026,4.354706 -7.32638,6.273131 l -5.636213,1.706503 -0.156253,11.101574 c -0.08597,6.105863 -0.1914,11.831616 -0.234375,12.7239 -0.04744,0.985716 1.507134,2.496816 3.961681,3.850819 2.2219,1.225669 6.6694,4.317178 6.40822,4.578356 -0.26118,0.261178 -4.76123,-2.292009 -6.52499,-3.382069 -4.083852,-2.523956 -4.391783,-2.492522 -4.391783,0.448435 0,2.332659 0.197906,2.422218 4.921873,2.227425 7.20997,-0.2973 7.26563,-0.273469 7.26563,3.110531 v 3.080832 l -13.359378,2.62009 c -7.347656,1.44105 -14.414062,2.79884 -15.703124,3.0173 -1.830657,0.31026 -8.295581,-3.60767 -29.53125,-17.896778 z m 26.71875,14.644958 c 0,-1.27563 -6.905391,-6.281408 -24.895387,-18.046874 C 38.128832,76.430919 26.210863,68.54241 25.336916,67.855785 23.937876,66.756613 23.15587,65.69556 24.500601,66.111472 c 0.840028,0.25981 12.284362,8.009934 24.48509,16.039031 12.200728,8.029097 23.747812,15.492553 25.66018,16.585453 l 3.477047,1.987084 5.625,-2.271212 5.625,-2.271225 0.46875,-15.292969 0.46875,-15.292959 -2.170406,-0.823368 c -1.193719,-0.45285 -4.032938,-0.82336 -6.309375,-0.82336 -3.387375,0 -7.334372,-1.637756 -21.735843,-9.01904 -9.678281,-4.960462 -19.359497,-10.022962 -21.513815,-11.25 -2.154319,-1.227028 -4.158225,-2.230959 -4.453125,-2.230959 -0.2949,0 -0.536185,4.400962 -0.536185,9.779915 0,9.602381 0.04678,9.812972 2.578125,11.601534 2.160488,1.526541 26.454665,16.419047 47.372999,29.03999 2.980941,1.798528 5.234672,3.45526 5.008313,3.681628 -0.226369,0.22636 -4.352813,-1.995853 -9.169885,-4.938253 C 74.564159,87.670353 63.872919,81.173103 55.622919,76.17441 47.372919,71.175725 38.925107,66.012754 36.850007,64.701144 33.168088,62.373922 32.98686,62.353035 29.336263,63.835297 c -4.962356,2.014875 -6.057093,2.791407 -6.057093,4.296478 0,0.693366 10.230468,8.135025 22.734374,16.537022 12.503906,8.401997 24.421874,16.444893 26.484374,17.873113 4.507528,3.12132 4.21875,1.57266 4.21875,-0.59691 z m 17.957465,-0.73766 c 11.975167,-2.2935 13.045397,-2.66366 12.790007,-4.42367 -0.23908,-1.64761 -1.07512,-1.965872 -5.87911,-2.238075 -3.080207,-0.174544 -5.7737,-0.49066 -5.985538,-0.702507 -0.211837,-0.211837 -0.012,-7.676034 0.444131,-16.587112 l 0.829294,-16.201959 5.550743,-1.964578 c 3.73994,-1.323675 5.79449,-2.62349 6.29792,-3.984375 0.90144,-2.436834 2.17215,-2.424281 -14.661163,-0.144796 -7.615453,1.03125 -14.211337,1.874999 -14.657521,1.874999 -0.446175,0 -0.811228,1.054688 -0.811228,2.34375 0,2.169254 0.331537,2.344707 4.453125,2.356547 9.241462,0.02653 8.705765,-1.117828 8.051231,17.199844 -0.315788,8.837737 -0.751454,16.279546 -0.968138,16.537359 -0.216694,0.257812 -3.001219,1.526259 -6.187847,2.818781 -3.538396,1.435192 -5.916384,2.986252 -6.108609,3.984372 -0.426103,2.21256 1.190109,2.12921 16.842703,-0.86858 z M 77.654178,60.314385 c 0,-1.324313 -3.067407,-3.265078 -12.421875,-7.85939 -6.832031,-3.355454 -19.277343,-9.516028 -27.656249,-13.690172 -12.097613,-6.0267 -15.230738,-7.25566 -15.216722,-5.968735 0.01275,1.172175 7.470797,5.437885 26.953124,15.416138 14.814506,7.587534 27.251878,13.81019 27.638597,13.828125 0.386718,0.01791 0.703125,-0.758757 0.703125,-1.725966 z"
       id="path4512"
       inkscape:connector-curvature="0"
       sodipodi:nodetypes="scccccssscsccscscscsccccccssssscscscsscsccccccssccsscsccscssssccssccccccssscscccsssscscs" />
  </g>
</svg>
