<?xml version="1.0" encoding="UTF-8" standalone="no"?>
<!-- Created with Inkscape (http://www.inkscape.org/) -->

<svg
   xmlns:dc="http://purl.org/dc/elements/1.1/"
   xmlns:cc="http://creativecommons.org/ns#"
   xmlns:rdf="http://www.w3.org/1999/02/22-rdf-syntax-ns#"
   xmlns:svg="http://www.w3.org/2000/svg"
   xmlns="http://www.w3.org/2000/svg"
   xmlns:sodipodi="http://sodipodi.sourceforge.net/DTD/sodipodi-0.dtd"
   xmlns:inkscape="http://www.inkscape.org/namespaces/inkscape"
   width="28.222223mm"
   height="28.222223mm"
   viewBox="0 0 100 100"
   id="svg9918"
   version="1.1"
   inkscape:version="0.91 r13725"
   sodipodi:docname="painting.svg"
   inkscape:export-filename="C:\Users\Lukas\Making\community website\icons\painting.png"
   inkscape:export-xdpi="269.99997"
   inkscape:export-ydpi="269.99997">
  <defs
     id="defs9920" />
  <sodipodi:namedview
     id="base"
     pagecolor="#ffffff"
     bordercolor="#666666"
     borderopacity="1.0"
     inkscape:pageopacity="0.0"
     inkscape:pageshadow="2"
     inkscape:zoom="1.979899"
     inkscape:cx="22.718236"
     inkscape:cy="33.915732"
     inkscape:document-units="px"
     inkscape:current-layer="layer1"
     showgrid="false"
     fit-margin-top="0"
     fit-margin-left="0"
     fit-margin-right="0"
     fit-margin-bottom="0"
     inkscape:window-width="1920"
     inkscape:window-height="1001"
     inkscape:window-x="-9"
     inkscape:window-y="-9"
     inkscape:window-maximized="1" />
  <metadata
     id="metadata9923">
    <rdf:RDF>
      <cc:Work
         rdf:about="">
        <dc:format>image/svg+xml</dc:format>
        <dc:type
           rdf:resource="http://purl.org/dc/dcmitype/StillImage" />
        <dc:title />
      </cc:Work>
    </rdf:RDF>
  </metadata>
  <g
     inkscape:label="Ebene 1"
     inkscape:groupmode="layer"
     id="layer1"
     transform="translate(-41.428565,-50.933662)">
    <rect
       style="opacity:1;fill:none;fill-opacity:1;stroke:#000000;stroke-width:1.93370163;stroke-linecap:butt;stroke-miterlimit:4;stroke-dasharray:none;stroke-dashoffset:0;stroke-opacity:1"
       id="rect9775"
       width="98.066299"
       height="98.066299"
       x="42.395416"
       y="51.900513"
       ry="15.842089" />
    <path
       style="fill:none;fill-rule:evenodd;stroke:#000000;stroke-width:1.70000005;stroke-linecap:butt;stroke-linejoin:miter;stroke-miterlimit:4;stroke-dasharray:none;stroke-opacity:1"
       d="m 65.65469,107.21659 c -0.0742,-6.95927 -8.33921,-2.41025 -11.28137,-3.91169 -2.51597,-2.12452 -2.67455,-4.51985 -1.79642,-6.78977 2.97874,-6.43 9.70827,-9.34572 15.73901,-11.92337 7.34667,-3.24063 15.53301,-5.75638 23.6265,-4.47301 6.12749,1.51939 10.13708,6.82995 14.14695,11.29884 2.71716,2.89103 4.98116,8.78056 3.82478,13.65013 -0.76316,3.7799 -3.108,7.81742 -4.37926,10.57507 -2.0278,4.20995 -5.07851,7.77985 -8.3512,11.05864 -4.67657,5.44248 -12.73351,11.52854 -17.08079,12.98985 -2.0309,0.72513 -10.95392,1.87363 -16.11424,-0.40734 -5.32653,-2.92334 -9.87414,-7.18037 -13.66507,-11.87308 -1.97052,-3.98087 -0.20739,-11.67848 3.43211,-13.74577 1.84804,-1.21158 4.78091,-3.18898 10.40862,-4.65593 1.01918,-0.26567 1.49038,-1.79257 1.49038,-1.79257 z"
       id="path9777"
       inkscape:connector-curvature="0"
       sodipodi:nodetypes="cccccccccccccsc" />
    <path
       style="opacity:1;fill:none;fill-opacity:1;stroke:#000000;stroke-width:1.68995547;stroke-linecap:butt;stroke-linejoin:miter;stroke-miterlimit:4;stroke-dasharray:none;stroke-dashoffset:0;stroke-opacity:1"
       id="path9792"
       sodipodi:type="arc"
       sodipodi:cx="39.151173"
       sodipodi:cy="133.54593"
       sodipodi:rx="7.337595"
       sodipodi:ry="3.7126324"
       sodipodi:start="6.2117315"
       sodipodi:end="6.2107716"
       sodipodi:open="true"
       d="m 46.470044,133.28087 a 7.337595,3.7126324 0 0 1 -6.793262,3.96815 7.337595,3.7126324 0 0 1 -7.844228,-3.43626 7.337595,3.7126324 0 0 1 6.789497,-3.9698 7.337595,3.7126324 0 0 1 7.847487,3.43436"
       transform="matrix(0.96176537,-0.27387473,0.19258297,0.98128069,0,0)" />
    <path
       sodipodi:type="star"
       style="opacity:1;fill:#585858;fill-opacity:1;stroke:#000000;stroke-width:1.17050707;stroke-linecap:butt;stroke-linejoin:miter;stroke-miterlimit:4;stroke-dasharray:none;stroke-dashoffset:0;stroke-opacity:1"
       id="path9794"
       sodipodi:sides="7"
       sodipodi:cx="269.7674"
       sodipodi:cy="475.24982"
       sodipodi:r1="4.6054177"
       sodipodi:r2="6.7726731"
       sodipodi:arg1="0.607802"
       sodipodi:arg2="1.0566009"
       inkscape:flatsided="false"
       inkscape:rounded="0.53"
       inkscape:randomized="0.113"
       d="m 274.30248,477.23372 c -1.20132,1.2338 0.67136,2.98747 -0.87357,3.82813 -1.54493,0.84067 -1.12145,-0.896 -2.89409,-0.99679 -1.77263,-0.1008 -2.23826,2.02567 -3.6948,1.11149 -1.45655,-0.91418 0.61165,-0.76311 -0.55033,-2.14128 -1.16198,-1.37817 -2.43039,-0.70307 -2.95453,-2.33333 -0.52414,-1.63026 1.77245,-0.60626 2.03285,-2.33919 0.26041,-1.73293 -2.31713,-1.34547 -1.33135,-2.84419 0.98578,-1.49872 2.45074,1.22562 3.91466,0.13096 1.46392,-1.09466 -0.11878,-2.60087 1.50073,-2.9154 1.61952,-0.31454 0.10828,1.98652 1.71541,2.86549 1.60713,0.87897 3.08754,-1.62934 4.21479,-0.3777 1.12725,1.25164 -1.79191,0.94422 -1.083,2.58963 0.70891,1.64541 1.9122,0.99147 1.8392,2.72453 -0.073,1.73306 -0.63464,-0.53615 -1.83597,0.69765 z"
       inkscape:transform-center-x="0.65034909"
       inkscape:transform-center-y="0.046652101"
       transform="translate(-197.88661,-380.97226)" />
    <path
       sodipodi:type="star"
       style="opacity:1;fill:#a0a0a0;fill-opacity:1;stroke:#000000;stroke-width:1.0084163;stroke-linecap:butt;stroke-linejoin:miter;stroke-miterlimit:4;stroke-dasharray:none;stroke-dashoffset:0;stroke-opacity:1"
       id="path9794-7"
       sodipodi:sides="7"
       sodipodi:cx="232.41025"
       sodipodi:cy="409.43765"
       sodipodi:r1="3.9676638"
       sodipodi:r2="5.8347993"
       sodipodi:arg1="0.607802"
       sodipodi:arg2="1.0566009"
       inkscape:flatsided="false"
       inkscape:rounded="0.53"
       inkscape:randomized="0.113"
       d="m 235.72896,412.20163 c -0.82958,1.28956 0.81289,1.54973 -0.44749,2.30354 -1.26038,0.75382 -1.30766,-0.92476 -2.86801,-0.70821 -1.56036,0.21655 -0.54936,2.07508 -1.94581,1.59465 -1.39646,-0.48043 0.52106,-2.01566 -0.35302,-3.34452 -0.87409,-1.32886 -3.72128,0.22229 -3.90347,-1.3027 -0.18219,-1.525 2.05991,-0.69246 2.28267,-2.20169 0.22276,-1.50923 -1.69842,-0.84595 -0.68789,-1.89923 1.01052,-1.05327 1.35125,0.46483 2.52565,-0.38531 1.1744,-0.85014 -0.15335,-2.39064 1.33264,-2.34772 1.486,0.0429 0.31117,1.41123 1.77518,1.94215 1.464,0.53092 2.77128,-1.04421 3.78973,0.002 1.01844,1.04633 -1.44122,1.60808 -1.06899,2.98272 0.37222,1.37464 2.21017,0.41038 1.86233,1.94137 -0.34785,1.53098 -1.46394,0.13327 -2.29352,1.42283 z"
       inkscape:transform-center-x="0.77882547"
       inkscape:transform-center-y="0.46037711"
       transform="translate(-145.03098,-320.66323)" />
    <path
       sodipodi:type="star"
       style="opacity:1;fill:#585858;fill-opacity:1;stroke:#000000;stroke-width:1.16855061;stroke-linecap:butt;stroke-linejoin:miter;stroke-miterlimit:4;stroke-dasharray:none;stroke-dashoffset:0;stroke-opacity:1"
       id="path9794-7-9"
       sodipodi:sides="7"
       sodipodi:cx="269.3165"
       sodipodi:cy="474.45551"
       sodipodi:r1="4.5977206"
       sodipodi:r2="6.7613535"
       sodipodi:arg1="0.607802"
       sodipodi:arg2="1.0566009"
       inkscape:flatsided="false"
       inkscape:rounded="0.53"
       inkscape:randomized="0.113"
       d="m 272.69803,477.16068 c -1.06193,1.36273 0.8024,1.97538 -0.62518,3.05601 -1.42758,1.08064 0.0156,-0.61358 -1.78936,-0.72003 -1.80493,-0.10646 -2.30696,2.07807 -3.88235,1.12168 -1.57539,-0.95638 0.69094,-1.30832 -0.54926,-2.65059 -1.2402,-1.34226 -1.62571,-0.26443 -2.3745,-1.93935 -0.74879,-1.67492 1.6444,-0.27304 1.61924,-1.99686 -0.0252,-1.72381 -2.20686,-2.66551 -1.08183,-4.12337 1.12503,-1.45786 0.95266,1.23897 2.48977,0.47106 1.53711,-0.76791 1.1187,-2.72167 2.77929,-2.65239 1.66058,0.0693 0.81735,1.49667 2.30545,2.29894 1.48809,0.80227 0.85819,-0.93787 2.18698,0.10735 1.3288,1.04521 0.0746,1.53101 0.44518,3.13539 0.37056,1.60438 2.36056,-0.23097 2.196,1.53809 -0.16456,1.76906 -2.65751,0.99135 -3.71943,2.35407 z"
       inkscape:transform-center-x="0.018465862"
       inkscape:transform-center-y="0.078576946"
       transform="translate(-170.80387,-369.53096)" />
    <path
       sodipodi:type="star"
       style="opacity:1;fill:#a0a0a0;fill-opacity:1;stroke:#000000;stroke-width:1.25522161;stroke-linecap:butt;stroke-linejoin:miter;stroke-miterlimit:4;stroke-dasharray:none;stroke-dashoffset:0;stroke-opacity:1"
       id="path9794-7-9-6"
       sodipodi:sides="7"
       sodipodi:cx="289.2916"
       sodipodi:cy="509.64572"
       sodipodi:r1="4.9387321"
       sodipodi:r2="7.2628407"
       sodipodi:arg1="0.607802"
       sodipodi:arg2="1.0566009"
       inkscape:flatsided="false"
       inkscape:rounded="0.53"
       inkscape:randomized="0.113"
       d="m 292.96967,513.23716 c -0.79989,1.62745 1.71505,1.43912 0.015,2.26398 -1.70007,0.82486 -1.74132,-1.01531 -3.51365,-1.12306 -1.77233,-0.10774 -0.60494,2.69489 -2.24794,1.81095 -1.64301,-0.88393 0.0177,-2.48103 -1.05947,-3.97979 -1.07712,-1.49877 -2.82257,0.48353 -3.54465,-1.28134 -0.72208,-1.76487 0.75009,-0.58593 1.02205,-2.40978 0.27195,-1.82385 -2.38535,-1.41763 -1.11338,-2.93009 1.27197,-1.51246 1.79881,0.42239 3.55901,-0.48269 1.76021,-0.90508 0.0102,-2.11538 1.95212,-2.41038 1.94187,-0.295 1.4443,1.20035 3.17579,2.08678 1.73149,0.88643 2.98645,-1.66181 4.21733,-0.23257 1.23088,1.42924 -2.65937,2.34118 -2.12595,4.16399 0.53342,1.82282 3.73566,-0.48064 3.20389,1.39929 -0.53176,1.87993 -2.74023,1.49727 -3.54012,3.12471 z"
       inkscape:transform-center-x="0.54137533"
       inkscape:transform-center-y="0.12251175"
       transform="translate(-202.12771,-388.26202)" />
    <path
       style="fill:none;fill-rule:evenodd;stroke:#000000;stroke-width:1.70000005;stroke-linecap:butt;stroke-linejoin:miter;stroke-miterlimit:4;stroke-dasharray:none;stroke-opacity:1"
       d="m 119.34072,135.82047 -0.68942,-61.333312 -5.36011,0.720576 3.7223,60.995556 1.32124,1.50145 z"
       id="path9841"
       inkscape:connector-curvature="0" />
    <path
       style="fill:#585858;fill-opacity:1;fill-rule:evenodd;stroke:#000000;stroke-width:1px;stroke-linecap:butt;stroke-linejoin:miter;stroke-opacity:1"
       d="m 113.59177,74.85486 -0.95218,-4.031176 c 0.35317,-2.643528 1.8666,-4.563423 2.47931,-9.098707 0.21942,-0.967776 0.14792,-1.375079 0.38404,-1.985765 l 3.28128,9.174028 -0.33793,5.292523 z"
       id="path9865"
       inkscape:connector-curvature="0"
       sodipodi:nodetypes="ccccccc" />
    <path
       inkscape:connector-curvature="0"
       id="path9895"
       d="m 122.81253,135.91299 4.22332,-53.09988 4.87305,0.92081 -6.98471,52.63947 -1.29948,1.22774 z"
       style="fill:none;fill-rule:evenodd;stroke:#000000;stroke-width:1.69299996;stroke-linecap:butt;stroke-linejoin:miter;stroke-miterlimit:4;stroke-dasharray:none;stroke-opacity:1" />
    <path
       sodipodi:nodetypes="ccccccc"
       inkscape:connector-curvature="0"
       id="path9897"
       d="m 131.65393,83.41156 1.10918,-3.43986 c -0.16907,-2.30983 -1.44448,-4.05692 -1.7408,-8.02009 -0.14454,-0.8506 -0.0551,-1.19953 -0.23589,-1.74168 l -3.5461,7.76669 0,4.60403 z"
       style="fill:#a0a0a0;fill-opacity:1;fill-rule:evenodd;stroke:#000000;stroke-width:0.89314818px;stroke-linecap:butt;stroke-linejoin:miter;stroke-opacity:1" />
  </g>
</svg>
