<?xml version="1.0" encoding="UTF-8" standalone="no"?>
<!-- Created with Inkscape (http://www.inkscape.org/) -->

<svg
   xmlns:dc="http://purl.org/dc/elements/1.1/"
   xmlns:cc="http://creativecommons.org/ns#"
   xmlns:rdf="http://www.w3.org/1999/02/22-rdf-syntax-ns#"
   xmlns:svg="http://www.w3.org/2000/svg"
   xmlns="http://www.w3.org/2000/svg"
   xmlns:sodipodi="http://sodipodi.sourceforge.net/DTD/sodipodi-0.dtd"
   xmlns:inkscape="http://www.inkscape.org/namespaces/inkscape"
   width="28.222223mm"
   height="28.217371mm"
   viewBox="0 0 100 99.98281"
   id="svg6212"
   version="1.1"
   inkscape:version="0.91 r13725"
   sodipodi:docname="power-woodwork.svg">
  <defs
     id="defs6214" />
  <sodipodi:namedview
     id="base"
     pagecolor="#ffffff"
     bordercolor="#666666"
     borderopacity="1.0"
     inkscape:pageopacity="0.0"
     inkscape:pageshadow="2"
     inkscape:zoom="0.35"
     inkscape:cx="-407.85714"
     inkscape:cy="-415.72287"
     inkscape:document-units="px"
     inkscape:current-layer="layer1"
     showgrid="false"
     inkscape:window-width="1920"
     inkscape:window-height="1001"
     inkscape:window-x="-9"
     inkscape:window-y="-9"
     inkscape:window-maximized="1"
     fit-margin-top="0"
     fit-margin-left="0"
     fit-margin-right="0"
     fit-margin-bottom="0" />
  <metadata
     id="metadata6217">
    <rdf:RDF>
      <cc:Work
         rdf:about="">
        <dc:format>image/svg+xml</dc:format>
        <dc:type
           rdf:resource="http://purl.org/dc/dcmitype/StillImage" />
        <dc:title></dc:title>
      </cc:Work>
    </rdf:RDF>
  </metadata>
  <g
     inkscape:label="Ebene 1"
     inkscape:groupmode="layer"
     id="layer1"
     transform="translate(-15.71428,-16.656519)">
    <rect
       style="opacity:1;fill:none;fill-opacity:1;stroke:#000000;stroke-width:1.93353546;stroke-linecap:butt;stroke-miterlimit:4;stroke-dasharray:none;stroke-dashoffset:0;stroke-opacity:1"
       id="rect4424"
       width="98.066467"
       height="98.049278"
       x="16.681047"
       y="17.623287"
       ry="15.839339" />
    <path
       inkscape:transform-center-y="-50.145616"
       inkscape:transform-center-x="7.8580983"
       sodipodi:nodetypes="cascccaaaaacascccaaaaacacscccaaaaacascccaaaaacascccaaaaacascccaaaaacascccaaaaacascccaaaaacascccaaaaacasc"
       inkscape:connector-curvature="0"
       id="path4804"
       d="m 115.1154,53.511693 c 0,0 -0.59319,-0.0291 -0.86504,-0.15707 -0.1896,-0.0893 -0.35956,-0.23204 -0.48533,-0.39968 -0.24073,-0.32092 -4.01104,-6.92298 -4.01104,-6.92298 l -5.66684,-2.81201 0.11419,2.05548 c 0,0 0.21119,0.25378 0.28549,0.39968 0.1502,0.29497 0.2719,0.61377 0.31403,0.9421 0.0364,0.28379 0.0235,0.5819 -0.0571,0.85644 -0.071,0.24193 -0.19969,0.47231 -0.3655,0.66227 -0.1491,0.17086 -0.34287,0.3048 -0.54568,0.40627 -0.1941,0.0971 -0.39397,0.11813 -0.62435,0.18488 0,0 -0.58051,0.12545 -0.87621,0.0722 -0.20625,-0.0371 -0.40737,-0.13107 -0.57224,-0.26045 -0.3156,-0.24767 -5.666171,-5.64894 -5.666171,-5.64894 l -6.20155,-1.24951 0.6423,1.95588 c 0,0 0.26967,0.19048 0.3792,0.31217 0.22142,0.24605 0.4215,0.52248 0.54716,0.82873 0.10861,0.26469 0.17327,0.556 0.1665,0.84203 -0.006,0.25208 -0.0706,0.5079 -0.18163,0.73431 -0.0998,0.20362 -0.25231,0.38315 -0.42193,0.53365 -0.16236,0.14406 -0.34998,0.21608 -0.55523,0.34018 0,0 -0.52826,0.27142 -0.82769,0.29649 l -1.1e-4,2e-5 c -0.20883,0.0175 -0.4274,-0.0212 -0.62014,-0.10347 -0.36894,-0.15755 -6.93515,-3.98995 -6.93515,-3.98995 l -6.31363,0.39815 1.12663,1.723 c 0,0 0.30978,0.11419 0.44707,0.20339 0.27757,0.18035 0.54236,0.39558 0.74301,0.65886 0.17342,0.22757 0.31127,0.49222 0.37877,0.77025 0.0595,0.24504 0.0632,0.50888 0.0146,0.7563 -0.0437,0.22252 -0.14454,0.4354 -0.26943,0.62468 -0.11954,0.18116 -0.28214,0.2993 -0.44826,0.47229 0,0 -0.44002,0.39889 -0.72276,0.50061 -0.1972,0.0709 -0.4183,0.0901 -0.62579,0.0606 -0.39715,-0.0567 -7.73151,-2.05904 -7.73151,-2.05904 l -5.99547,2.01867 1.53418,1.3727 c 0,0 0.32881,0.0301 0.48449,0.0807 0.31481,0.10239 0.62626,0.24175 0.88823,0.44412 0.2264,0.17493 0.42807,0.39488 0.5652,0.64599 0.12082,0.22129 0.19278,0.47516 0.20987,0.72672 0.0154,0.22624 -0.0269,0.45799 -0.0986,0.67314 -0.0686,0.20593 -0.19507,0.36211 -0.31078,0.57219 0,0 -0.32176,0.49919 -0.56853,0.67063 -0.17213,0.11956 -0.38072,0.19534 -0.5888,0.22045 -0.3983,0.048 -8.00098,0.0122 -8.00098,0.0122 l -5.26872,3.50164 1.83719,0.92885 c 0,0 0.3254,-0.056 0.48888,-0.0474 0.33058,0.0174 0.66749,0.0714 0.97291,0.1991 0.26396,0.11038 0.51568,0.27064 0.71313,0.47771 0.17399,0.18246 0.3092,0.40907 0.39081,0.64763 0.0734,0.21456 0.0925,0.44936 0.079,0.67571 -0.0129,0.21667 -0.0947,0.40026 -0.15208,0.63313 0,0 -0.18161,0.56547 -0.3756,0.79493 -0.13532,0.16004 -0.31719,0.28723 -0.51168,0.36533 -0.3723,0.14948 -7.7252,2.08258 -7.7252,2.08258 l -4.18289,4.74596 2.01499,0.4217 c 0,0 0.29981,-0.1383 0.45995,-0.17233 0.32382,-0.0687 0.66322,-0.10377 0.99128,-0.0595 0.28354,0.0383 0.56816,0.12795 0.81248,0.27685 0.21528,0.13123 0.40453,0.31511 0.5451,0.52443 0.12642,0.18825 0.20568,0.41008 0.2512,0.63224 0.0436,0.21262 0.0121,0.41112 0.017,0.65091 0,0 -0.0291,0.5932 -0.15706,0.86505 -0.0893,0.18961 -0.23203,0.35953 -0.39968,0.48532 -0.32093,0.24074 -6.92296,4.01104 -6.92296,4.01104 l -2.81202,5.66686 2.05547,-0.11418 c 0,0 0.2538,-0.21119 0.39967,-0.2855 0.295,-0.1502 0.61378,-0.2719 0.94211,-0.31404 0.2838,-0.0364 0.58192,-0.0234 0.85645,0.0571 0.24192,0.071 0.47231,0.19967 0.66228,0.36547 0.17082,0.14911 0.30479,0.34288 0.40626,0.54569 0.0971,0.1941 0.11813,0.39397 0.18488,0.62433 0,0 0.12545,0.58051 0.0722,0.87623 -0.0371,0.20626 -0.13107,0.40734 -0.26045,0.57223 -0.24769,0.3156 -5.64895,5.66617 -5.64895,5.66617 l -1.2495,6.20156 1.95589,-0.64229 c 0,0 0.19047,-0.26969 0.31215,-0.37921 0.24607,-0.22144 0.52249,-0.42149 0.82872,-0.54717 0.26471,-0.10861 0.55602,-0.17328 0.84206,-0.16648 0.25206,0.006 0.5079,0.0706 0.7343,0.18161 0.2036,0.0998 0.38315,0.25232 0.53366,0.42194 0.14405,0.16236 0.21607,0.34998 0.34016,0.55522 0,0 0.27143,0.52825 0.2965,0.8277 0.0175,0.20883 -0.0212,0.42737 -0.10348,0.62012 -0.15755,0.36896 -3.98994,6.935157 -3.98994,6.935157 l 0.39816,6.31365 1.72299,-1.12662 c 0,0 0.11419,-0.3098 0.20337,-0.44709 0.18038,-0.27758 0.39561,-0.54236 0.65888,-0.74301 0.22758,-0.17342 0.49223,-0.31128 0.77028,-0.37875 0.24502,-0.0594 0.50886,-0.0632 0.75628,-0.0147 0.2225,0.0437 0.4354,0.14454 0.62468,0.26944 0.18116,0.11953 0.29929,0.28212 0.47227,0.44826 0,0 0.39891,0.44 0.50062,0.72275 0.071,0.1972 0.0902,0.41829 0.0606,0.62578 -0.0567,0.39717 -1.28564,5.16826 -1.28564,5.16826"
       style="fill:none;fill-opacity:1;fill-rule:evenodd;stroke:#000000;stroke-width:2.75785923;stroke-linecap:butt;stroke-linejoin:miter;stroke-miterlimit:4;stroke-dasharray:none;stroke-opacity:1" />
    <circle
       style="opacity:1;fill:none;fill-opacity:1;stroke:#000000;stroke-width:2.05599999;stroke-linecap:butt;stroke-linejoin:miter;stroke-miterlimit:4;stroke-dasharray:none;stroke-dashoffset:0;stroke-opacity:1"
       id="path4998"
       cx="90.990341"
       cy="96.341362"
       r="7.601398" />
  </g>
</svg>
