<?xml version="1.0" encoding="UTF-8" standalone="no"?>
<!-- Created with Inkscape (http://www.inkscape.org/) -->

<svg
   xmlns:dc="http://purl.org/dc/elements/1.1/"
   xmlns:cc="http://creativecommons.org/ns#"
   xmlns:rdf="http://www.w3.org/1999/02/22-rdf-syntax-ns#"
   xmlns:svg="http://www.w3.org/2000/svg"
   xmlns="http://www.w3.org/2000/svg"
   xmlns:sodipodi="http://sodipodi.sourceforge.net/DTD/sodipodi-0.dtd"
   xmlns:inkscape="http://www.inkscape.org/namespaces/inkscape"
   width="28.222223mm"
   height="28.217371mm"
   viewBox="0 0 100 99.98281"
   id="svg7393"
   version="1.1"
   inkscape:version="0.91 r13725"
   sodipodi:docname="traditional-woodwork.svg">
  <defs
     id="defs7395" />
  <sodipodi:namedview
     id="base"
     pagecolor="#ffffff"
     bordercolor="#666666"
     borderopacity="1.0"
     inkscape:pageopacity="0.0"
     inkscape:pageshadow="2"
     inkscape:zoom="0.35"
     inkscape:cx="-425"
     inkscape:cy="-401.43716"
     inkscape:document-units="px"
     inkscape:current-layer="layer1"
     showgrid="false"
     fit-margin-top="0"
     fit-margin-left="0"
     fit-margin-right="0"
     fit-margin-bottom="0"
     inkscape:window-width="1920"
     inkscape:window-height="1001"
     inkscape:window-x="-9"
     inkscape:window-y="-9"
     inkscape:window-maximized="1" />
  <metadata
     id="metadata7398">
    <rdf:RDF>
      <cc:Work
         rdf:about="">
        <dc:format>image/svg+xml</dc:format>
        <dc:type
           rdf:resource="http://purl.org/dc/dcmitype/StillImage" />
        <dc:title></dc:title>
      </cc:Work>
    </rdf:RDF>
  </metadata>
  <g
     inkscape:label="Ebene 1"
     inkscape:groupmode="layer"
     id="layer1"
     transform="translate(-32.857142,-30.942227)">
    <rect
       ry="15.839339"
       y="31.908995"
       x="33.82391"
       height="98.049278"
       width="98.066467"
       id="rect5427"
       style="opacity:1;fill:none;fill-opacity:1;stroke:#000000;stroke-width:1.93353546;stroke-linecap:butt;stroke-miterlimit:4;stroke-dasharray:none;stroke-dashoffset:0;stroke-opacity:1" />
    <path
       style="fill:none;fill-rule:evenodd;stroke:#000000;stroke-width:1.39658225;stroke-linecap:butt;stroke-linejoin:miter;stroke-miterlimit:4;stroke-dasharray:none;stroke-opacity:1"
       d="m 90.63411,93.798466 17.7307,-21.97608 c 0,0 2.37045,-0.025 3.29641,0.59935 0.80037,0.5397 1.54832,2.44733 1.54832,2.44733 l -10.43864,13.18565 0.29968,0.5494 16.63189,-18.33004 c 0,0 0.97655,0.12375 1.29858,0.44951 0.2961,0.29952 0.39957,1.19869 0.39957,1.19869 l -12.78608,13.63516 7.64168,-6.44299 c 0,0 0.67034,-0.47805 0.99891,-0.34962 0.82547,0.32268 1.05073,1.48354 1.24864,2.34745 0.19347,0.84449 0.14337,1.76566 -0.0999,2.59717 -0.24933,0.85229 -0.84783,1.56411 -1.34853,2.2975 -0.39438,0.57765 -1.04433,0.99662 -1.29859,1.6482 -0.31563,0.80889 -0.41932,1.75711 -0.19978,2.59718 0.36426,1.39384 2.39739,3.59608 2.39739,3.59608 z"
       id="path4355"
       inkscape:connector-curvature="0"
       sodipodi:nodetypes="ccaccccacccaaaaaacc" />
    <path
       style="fill:none;fill-rule:evenodd;stroke:#000000;stroke-width:1.39658225;stroke-linecap:butt;stroke-linejoin:miter;stroke-miterlimit:4;stroke-dasharray:none;stroke-opacity:1"
       d="m 123.28872,107.07146 0,-12.290284 -63.42914,0 c 0,0 -3.53782,-5.39426 -3.7436,-8.47605 -0.20254,-3.03333 1.46483,-5.91605 2.54282,-8.75859 0.0666,-0.17566 -5.59055,-3.57218 -6.49831,-3.00194 -1.33683,0.83978 -0.74437,3.09028 -1.41267,4.52057 -0.99531,2.1301 -2.64397,3.89401 -3.81423,5.93323 -0.74947,1.30598 -1.55934,2.60201 -2.04838,4.02613 -0.46341,1.34948 -0.71513,2.77919 -0.81229,4.20271 -0.10276,1.5056 -0.0546,3.04195 0.24722,4.52056 0.31061,1.52154 1.14667,2.890794 1.58926,4.379304 0.16196,0.54468 0.57565,1.12335 0.38849,1.65989 -0.47475,1.361 -2.7627,1.38652 -3.39042,2.68408 -0.12817,0.26494 0,0.88293 0,0.88293 z"
       id="path4323"
       inkscape:connector-curvature="0"
       sodipodi:nodetypes="cccassaaaaaaaacc" />
    <path
       style="fill:none;fill-rule:evenodd;stroke:#000000;stroke-width:1.39658225;stroke-linecap:butt;stroke-linejoin:miter;stroke-miterlimit:4;stroke-dasharray:none;stroke-opacity:1"
       d="m 123.27787,116.4158 0,-8.39086 -80.40336,0.29967 0,8.19108 z"
       id="path4325"
       inkscape:connector-curvature="0"
       sodipodi:nodetypes="ccccc" />
    <rect
       style="opacity:1;fill:none;fill-opacity:1;stroke:#000000;stroke-width:1.39658225;stroke-linecap:butt;stroke-miterlimit:4;stroke-dasharray:none;stroke-dashoffset:0;stroke-opacity:1"
       id="rect4327"
       width="36.160645"
       height="10.48858"
       x="87.467865"
       y="4.7802844"
       ry="0"
       transform="matrix(0.74209369,0.67029617,-0.67029617,0.74209369,0,0)" />
    <circle
       style="opacity:1;fill:none;fill-opacity:1;stroke:#000000;stroke-width:1.39658225;stroke-linecap:butt;stroke-miterlimit:4;stroke-dasharray:none;stroke-dashoffset:0;stroke-opacity:1"
       id="path4331"
       cx="81.935539"
       cy="46.45002"
       r="1.6981515" />
    <circle
       style="opacity:1;fill:none;fill-opacity:1;stroke:#000000;stroke-width:1.39658225;stroke-linecap:butt;stroke-miterlimit:4;stroke-dasharray:none;stroke-dashoffset:0;stroke-opacity:1"
       id="path4333"
       cx="81.935539"
       cy="46.45002"
       r="4.5450525" />
    <path
       style="fill:#ffffff;fill-rule:evenodd;stroke:#000000;stroke-width:1.39658225;stroke-linecap:butt;stroke-linejoin:miter;stroke-miterlimit:4;stroke-dasharray:none;stroke-opacity:1"
       d="m 81.89363,56.081476 3.57289,-6.57568 17.80384,45.2336 -2.39739,0.0293 z"
       id="path4339"
       inkscape:connector-curvature="0"
       sodipodi:nodetypes="ccccc" />
    <rect
       style="opacity:1;fill:#ffffff;fill-opacity:1;stroke:#000000;stroke-width:1.39658225;stroke-linecap:butt;stroke-miterlimit:4;stroke-dasharray:none;stroke-dashoffset:0;stroke-opacity:1"
       id="rect4329"
       width="9.2058611"
       height="50.161274"
       x="114.45632"
       y="-37.467457"
       transform="matrix(0.74209369,0.67029617,-0.67029617,0.74209369,0,0)" />
    <path
       style="fill:#ffffff;fill-opacity:1;fill-rule:evenodd;stroke:#000000;stroke-width:1.39658225;stroke-linecap:butt;stroke-linejoin:miter;stroke-miterlimit:4;stroke-dasharray:none;stroke-opacity:1"
       d="m 77.42349,49.850756 -17.00649,44.84727 1.99783,0 20.37782,-42.74955 c 0,0 -1.6229,0.28591 -3.1216,-0.31216 -1.3921,-0.55553 -2.24756,-1.78556 -2.24756,-1.78556 z"
       id="path4341"
       inkscape:connector-curvature="0"
       sodipodi:nodetypes="ccccsc" />
  </g>
</svg>
