<?xml version="1.0" encoding="UTF-8" standalone="no"?>
<!-- Created with Inkscape (http://www.inkscape.org/) -->

<svg
   xmlns:dc="http://purl.org/dc/elements/1.1/"
   xmlns:cc="http://creativecommons.org/ns#"
   xmlns:rdf="http://www.w3.org/1999/02/22-rdf-syntax-ns#"
   xmlns:svg="http://www.w3.org/2000/svg"
   xmlns="http://www.w3.org/2000/svg"
   xmlns:sodipodi="http://sodipodi.sourceforge.net/DTD/sodipodi-0.dtd"
   xmlns:inkscape="http://www.inkscape.org/namespaces/inkscape"
   width="28.222223mm"
   height="28.217371mm"
   viewBox="0 0 100 99.98281"
   id="svg6212"
   version="1.1"
   inkscape:version="0.92.2 (5c3e80d, 2017-08-06)"
   sodipodi:docname="woodturning.svg">
  <defs
     id="defs6214" />
  <sodipodi:namedview
     id="base"
     pagecolor="#ffffff"
     bordercolor="#666666"
     borderopacity="1.0"
     inkscape:pageopacity="0.0"
     inkscape:pageshadow="2"
     inkscape:zoom="1.4"
     inkscape:cx="48.201808"
     inkscape:cy="63.523613"
     inkscape:document-units="px"
     inkscape:current-layer="layer1"
     showgrid="false"
     inkscape:window-width="716"
     inkscape:window-height="403"
     inkscape:window-x="195"
     inkscape:window-y="202"
     inkscape:window-maximized="0"
     fit-margin-top="0"
     fit-margin-left="0"
     fit-margin-right="0"
     fit-margin-bottom="0" />
  <metadata
     id="metadata6217">
    <rdf:RDF>
      <cc:Work
         rdf:about="">
        <dc:format>image/svg+xml</dc:format>
        <dc:type
           rdf:resource="http://purl.org/dc/dcmitype/StillImage" />
        <dc:title></dc:title>
      </cc:Work>
    </rdf:RDF>
  </metadata>
  <g
     inkscape:label="Ebene 1"
     inkscape:groupmode="layer"
     id="layer1"
     transform="translate(-15.71428,-16.656519)">
    <rect
       style="opacity:1;fill:none;fill-opacity:1;stroke:#000000;stroke-width:1.93353546;stroke-linecap:butt;stroke-miterlimit:4;stroke-dasharray:none;stroke-dashoffset:0;stroke-opacity:1"
       id="rect4424"
       width="98.066467"
       height="98.049278"
       x="16.681047"
       y="17.623287"
       ry="15.839339" />
    <path
       style="fill:#000000;stroke:#000000;stroke-width:0.86490566;stroke-miterlimit:4;stroke-dasharray:none;stroke-opacity:1"
       d="m 39.395475,111.16537 c -0.554981,-0.10098 -1.285846,-0.3589 -1.624149,-0.57323 -1.543791,-0.97803 -2.045353,-3.39171 -1.089894,-5.24493 0.682262,-1.32334 8.0592,-8.77724 9.562367,-9.662146 1.562814,-0.920013 2.311752,-1.879853 2.71435,-3.47873 0.233916,-0.928956 0.523576,-1.361395 1.072844,-1.601651 0.779671,-0.34105 1.761462,-1.270132 1.761462,-1.666896 0,-0.124941 -0.11735,-0.299701 -0.260788,-0.388347 -0.401205,-0.24797 -1.973993,-3.140952 -2.630778,-4.839077 -0.323465,-0.83631 -0.667586,-2.588602 -0.7647,-3.893968 l -0.176578,-2.373388 -0.894523,-0.156154 c -0.959657,-0.167521 -2.860846,-0.534605 -5.283473,-1.020139 -2.103523,-0.421573 -5.313255,-1.793343 -7.750351,-3.312313 -5.272911,-3.286466 -8.681612,-9.384523 -8.053937,-14.408256 0.299891,-2.40024 2.449988,-6.100535 5.063234,-8.713784 l 1.443204,-1.443203 -2.191631,-2.415911 c -3.285247,-3.621445 -4.134323,-5.602378 -3.425036,-7.990801 0.976679,-3.288838 4.171174,-4.260506 7.626294,-2.319683 1.138658,0.639613 3.641147,3.522648 5.922453,6.823072 0.759933,1.099407 0.948493,1.216746 1.718499,1.069366 3.252826,-0.622591 5.258206,-0.699213 7.912559,-0.302328 1.524087,0.227885 3.113177,0.544406 3.531307,0.703379 l 0.760241,0.289045 1.941161,-4.956809 c 1.067636,-2.726247 2.163871,-5.475755 2.436087,-6.110019 1.297492,-3.023183 1.491436,-3.79495 1.20989,-4.814611 -0.754131,-2.731247 0.3691,-5.145669 2.936214,-6.311486 1.632947,-0.741582 2.880241,-0.682567 4.527963,0.21424 1.084134,0.590058 1.569682,1.096054 2.129204,2.218868 0.799969,1.605323 0.890568,2.509553 0.394151,3.933583 -0.322486,0.92508 -0.07645,2.132013 0.91144,4.471104 0.133938,0.317132 1.048442,2.976717 2.032226,5.910188 0.983791,2.933474 1.829109,5.380542 1.87849,5.437935 0.04935,0.05738 1.102324,-0.26532 2.339888,-0.717134 2.116115,-0.772557 6.582141,-1.330984 6.582141,-1.330984 l 5.016167,0.558182 1.399823,-1.944684 c 0.769905,-1.022539 2.481934,-3.399241 3.804511,-5.281552 2.364696,-3.365495 2.410921,-3.410456 2.780689,-2.704715 0.832188,1.58828 5.010194,11.479385 5.010194,11.86124 0,0.225231 -0.81085,1.126736 -1.801893,2.003347 l -1.801889,1.593836 0.895196,0.956225 c 1.387596,1.482219 2.646736,3.490141 3.625476,5.78146 2.16234,5.062225 1.01964,10.19259 -3.295776,14.797028 -3.240009,3.456996 -7.513454,5.659957 -13.103267,6.754737 -1.712333,0.335363 -3.388245,0.665961 -3.724251,0.734658 -0.521232,0.106572 -0.615826,0.342433 -0.644303,1.606617 -0.06725,2.985587 -1.396302,6.827543 -3.16434,9.147456 -0.874266,1.147165 -0.680868,1.660705 0.913899,2.426733 0.913425,0.438744 1.055095,0.640635 1.055095,1.503548 0,1.143899 1.249778,2.771894 2.706029,3.524945 1.308781,0.676804 8.973592,8.482697 9.670246,9.848257 0.736795,1.44422 0.755594,2.48788 0.0683,3.79301 -0.655347,1.24455 -2.09715,2.01258 -3.77923,2.01317 -1.168004,2.9e-4 -1.409879,-0.1331 -2.7412,-1.51313 -1.767857,-1.83257 -6.907641,-8.98212 -7.826572,-10.886956 -0.739974,-1.533917 -1.687993,-2.399299 -3.160902,-2.885402 -0.926391,-0.305743 -1.111528,-0.542942 -1.024296,-1.312386 0.01925,-0.170104 -0.268037,-0.594021 -0.638489,-0.942048 l -0.673559,-0.632765 -1.358029,0.600715 c -4.451138,1.968951 -9.354955,1.942302 -14.08811,-0.0766 l -1.36729,-0.583198 -0.569154,0.683256 c -0.313028,0.37579 -0.573465,0.894416 -0.578743,1.152494 -0.0121,0.591258 -0.516959,1.015711 -1.502361,1.263029 -0.957503,0.240319 -2.721854,1.970989 -2.954559,2.898144 -0.327195,1.303667 -7.199584,10.713157 -8.398078,11.498447 -1.12697,0.73841 -1.92878,0.93495 -3.011198,0.73805 z m 2.529114,-0.90819 c 1.050439,-0.56218 7.784556,-9.65781 8.454045,-11.418707 0.538532,-1.416445 1.656016,-2.589924 2.988016,-3.13772 0.718665,-0.295561 1.307151,-0.66224 1.307746,-0.81486 0.0028,-0.560858 -4.482147,-4.017027 -4.887216,-3.766682 -0.165624,0.102348 -0.301137,0.548196 -0.301137,0.990754 0,1.01901 -1.44524,3.035594 -2.605561,3.635615 -1.127389,0.582999 -8.607581,7.97868 -9.611797,9.50321 -0.861619,1.30805 -0.953841,2.39049 -0.309773,3.63599 0.889692,1.72047 3.148705,2.34481 4.965677,1.3724 z m 9.291265,-16.375585 c -0.872112,-0.774162 -1.493795,-1.499765 -1.381513,-1.612454 0.112283,-0.112689 0.955564,0.522241 1.873961,1.41094 2.052064,1.985711 1.686163,2.135441 -0.492448,0.201514 z m 39.796023,16.558485 c 0.297505,-0.0945 0.870951,-0.56391 1.274325,-1.0433 1.045354,-1.24234 0.993801,-2.79559 -0.147859,-4.45494 -1.188831,-1.72791 -8.128438,-8.624421 -9.129595,-9.072916 -1.174383,-0.526087 -2.594612,-2.407222 -2.818676,-3.733393 -0.107088,-0.633889 -0.327085,-1.152536 -0.488878,-1.152536 -0.338212,0 -3.568273,2.523913 -4.378936,3.421629 -0.540038,0.598035 -0.535523,0.605139 0.730521,1.147828 1.308993,0.5611 3.12836,2.342723 3.12836,3.063451 0,0.67894 5.854217,8.956907 7.705803,10.896167 1.100564,1.15267 2.456168,1.45765 4.124935,0.92801 z M 76.586419,95.093974 c 0,-0.421794 2.88943,-3.047457 3.110415,-2.826472 0.104345,0.104345 -0.325803,0.668839 -0.955836,1.254475 -1.627049,1.512385 -2.154579,1.897275 -2.154579,1.571997 z m -7.704706,-0.918889 c 1.284781,-0.293774 3.135726,-1.083666 4.818795,-2.05643 2.156557,-1.246416 4.999849,-4.400278 5.962164,-6.613395 1.252846,-2.881263 1.603417,-4.492044 1.600065,-7.351693 -0.0032,-2.493936 -0.122041,-3.205637 -0.882563,-5.273478 -1.259919,-3.425646 -2.923527,-5.607792 -5.956023,-7.812518 -2.806055,-2.040098 -5.637908,-2.927053 -9.452911,-2.960711 -4.527312,-0.03994 -8.075516,1.372298 -11.453077,4.558521 -2.362623,2.228769 -4.063043,5.307307 -4.753061,8.605166 -0.542668,2.593614 -0.537279,3.738858 0.02954,6.285723 1.603802,7.205969 7.375203,12.312978 14.529865,12.857222 2.884097,0.219378 3.71009,0.183944 5.55718,-0.238407 z M 55.388512,93.400094 c 0.256251,-0.25625 0.427691,-0.562298 0.380971,-0.680104 -0.04675,-0.117806 -0.906477,-0.894784 -1.910574,-1.726613 -1.820745,-1.508382 -1.826582,-1.510673 -2.186289,-0.857491 -0.198368,0.360196 -0.414723,0.706983 -0.480788,0.77062 -0.139503,0.134388 3.230135,2.959505 3.529921,2.959505 0.110463,0 0.410501,-0.209657 0.666759,-0.465917 z m 21.471236,-0.986099 c 0.95963,-0.798614 1.744782,-1.556919 1.744782,-1.685128 0,-0.128209 -0.241335,-0.451511 -0.536299,-0.718447 -0.508835,-0.460485 -0.608484,-0.420933 -1.946032,0.772532 -0.775361,0.691831 -1.635979,1.381339 -1.912492,1.532256 -0.45937,0.250702 -0.464171,0.32946 -0.05571,0.912595 0.245864,0.351012 0.562665,0.638208 0.704008,0.638208 0.141344,0 1.042138,-0.653402 2.001761,-1.452016 z M 48.837069,73.302482 c 0.255908,-0.923864 0.960701,-2.527512 1.566188,-3.563665 0.605494,-1.036153 1.100897,-1.945494 1.100897,-2.020757 0,-0.07527 -2.506025,-2.688034 -5.568947,-5.806144 -3.062922,-3.118113 -6.29543,-6.444336 -7.183359,-7.391612 l -1.614406,-1.722313 -1.581384,1.089141 c -3.035155,2.09039 -4.225195,4.953444 -3.499866,8.420162 0.507,2.423174 1.563591,4.33809 3.649988,6.615021 2.725514,2.974416 5.402467,4.755987 11.185144,7.443943 l 1.009059,0.469036 0.235687,-0.926523 c 0.129634,-0.50959 0.445077,-1.682418 0.700999,-2.606289 z m 37.728841,1.175901 c 2.897728,-1.483023 6.388395,-4.198703 7.935005,-6.173299 2.349575,-2.999759 3.193646,-5.149156 3.149649,-8.020436 -0.03857,-2.518105 -0.642579,-3.832257 -2.67646,-5.823394 l -1.522031,-1.490039 -7.596488,7.488544 -7.59649,7.488543 0.752045,1.136404 c 1.115968,1.686352 2.118281,4.104415 2.494974,6.019133 l 0.333705,1.6962 1.337447,-0.635942 c 0.735597,-0.349761 2.260487,-1.108336 3.388644,-1.685714 z M 43.630581,75.280746 C 36.07703,71.469139 31.27853,65.608235 31.348081,60.278847 c 0.03856,-2.95651 1.464755,-5.124442 4.826463,-7.336752 1.295812,-0.852765 2.356029,-1.631263 2.356029,-1.72999 0,-0.09873 0.227035,-0.19186 0.504529,-0.20695 0.277487,-0.0151 1.282941,-0.329947 2.23434,-0.69968 1.540039,-0.598491 2.22004,-0.673422 6.19849,-0.683019 4.05526,-0.0098 4.647252,0.05514 6.398928,0.701735 1.061639,0.391884 1.990408,0.651356 2.063936,0.576603 0.123964,-0.126027 2.284181,-4.213317 7.795314,-14.74931 l 2.214986,-4.234532 -1.114062,0.01536 c -1.172597,0.01617 -2.678836,-0.610042 -3.692724,-1.535263 l -0.604571,-0.551695 -2.53603,6.42353 c -1.394817,3.532945 -2.705406,6.845173 -2.912423,7.360513 -0.435804,1.084897 -0.471122,1.090683 -2.814764,0.461152 -2.387595,-0.641336 -7.75268,-0.6314 -10.276328,0.01903 -2.172368,0.559896 -5.477739,1.886572 -5.477739,2.198599 0,0.11759 -0.315318,0.292938 -0.700712,0.389665 -0.385402,0.09673 -1.181963,0.62974 -1.770141,1.184464 -0.588184,0.554734 -1.128109,1.008601 -1.199845,1.008601 -0.787748,0 -3.936783,3.88457 -5.32955,6.574382 -0.971304,1.875857 -1.090313,2.336715 -1.090313,4.222086 0,1.30247 0.219917,2.821022 0.571842,3.948634 1.666473,5.339571 7.512892,10.314341 13.987399,11.902009 3.553795,0.871454 3.735756,0.910874 4.468679,0.968121 0.420825,0.0329 -0.336217,-0.477057 -1.819233,-1.225407 z m 43.911309,0.530567 c 9.823653,-2.159518 16.7004,-9.990101 15.50565,-17.656391 -0.39733,-2.549508 -2.23595,-6.158224 -4.378366,-8.593543 -1.442033,-1.639178 -4.297508,-3.779025 -6.282189,-4.70777 -2.252701,-1.054167 -6.390087,-2.002366 -8.773876,-2.010788 -1.998215,-0.007 -5.404514,0.6866 -7.266822,1.479811 -1.664892,0.709127 -1.968115,0.674139 -2.201058,-0.253983 -0.108509,-0.432326 -1.248063,-3.798936 -2.532341,-7.481356 l -2.335057,-6.695313 -0.968569,0.850416 c -0.532709,0.467726 -1.089109,0.850412 -1.236444,0.850412 -0.383456,0 -1.730174,2.058464 -1.730174,2.644576 0,0.461018 0.479171,1.552436 3.395633,7.734293 0.635871,1.347811 1.825686,3.87399 2.644043,5.613729 0.818354,1.739744 1.533065,3.208321 1.588254,3.26351 0.05522,0.05519 0.660943,-0.185652 1.346124,-0.535203 3.218006,-1.641709 8.799211,-2.241285 12.216133,-1.31236 4.477249,1.217182 8.639782,4.178241 10.716398,7.623217 1.015185,1.684125 1.237809,4.542515 0.521715,6.698475 -1.589104,4.784371 -6.159623,9.323471 -12.362635,12.277666 -1.857292,0.884542 -1.940032,0.958483 -0.893586,0.798668 0.634257,-0.09686 1.996482,-0.361492 3.027167,-0.588066 z M 52.468054,66.923515 c 0.08837,-0.230304 0.934355,-0.981699 1.879958,-1.669761 l 1.719277,-1.251027 -2.598554,-3.447601 C 52.039522,58.658947 49.647271,55.47142 48.152623,53.471737 l -2.71755,-3.63579 -1.07376,0.20684 c -1.686184,0.324804 -3.524329,0.872662 -3.524329,1.050409 0,0.163091 3.631335,4.491775 6.012848,7.167538 0.705647,0.79283 1.687157,1.895585 2.181131,2.450567 2.357681,2.648837 3.373936,4.036225 2.956512,4.036225 -0.239396,0 -0.480787,0.136556 -0.536424,0.303461 -0.09302,0.279066 -2.378344,-2.099167 -8.860318,-9.220547 -3.963038,-4.353967 -3.692425,-4.119298 -4.346536,-3.76923 -0.318195,0.170291 -0.578533,0.426408 -0.578533,0.569146 0,0.319178 14.104588,14.711885 14.41738,14.711885 0.123383,0 0.296637,-0.188429 0.38501,-0.418726 z m 33.183422,-6.875219 7.429851,-7.293953 -1.043631,-0.796014 c -1.366386,-1.042189 -3.650453,-2.037847 -5.752141,-2.50743 -1.443022,-0.322415 -1.72261,-0.317196 -1.921171,0.03588 -0.12782,0.227264 -1.62314,2.359242 -3.322958,4.737734 -7.541867,10.553119 -7.179626,9.994948 -6.671135,10.27951 0.243498,0.136273 1.133647,0.823937 1.978103,1.52815 0.844457,0.704211 1.611403,1.287063 1.704312,1.295232 0.09291,0.0081 3.512358,-3.267434 7.59877,-7.279104 z m -34.46362,3.906399 c -0.212792,-0.277489 -0.909788,-1.0965 -1.548885,-1.820023 -0.639092,-0.723522 -2.653947,-3.039194 -4.477458,-5.145938 -4.85373,-5.607636 -4.810056,-5.563095 -5.351198,-5.456677 -0.48876,0.09612 0.247033,0.965062 6.185829,7.305281 0.891162,0.951397 2.381135,2.605527 3.311053,3.675848 0.929925,1.070321 1.82055,1.94604 1.979167,1.94604 0.158618,0 0.114291,-0.227039 -0.0985,-0.504531 z m 24.677805,-3.235426 c 0.634268,-0.895385 2.742474,-3.84434 4.684912,-6.553233 1.942428,-2.708894 3.53169,-5.003977 3.53169,-5.100188 0,-0.334827 -3.210259,-0.171967 -5.417812,0.27486 -1.222202,0.247383 -3.047601,0.831195 -4.056436,1.297358 -2.05753,0.950741 -2.057825,0.950824 -2.057825,0.577438 0,-0.148577 -0.795476,-1.932445 -1.76773,-3.964154 -2.481541,-5.185641 -4.241168,-8.917485 -5.038338,-10.685334 -0.375378,-0.832472 -0.740468,-1.513586 -0.811308,-1.513586 -0.07085,0 -1.166627,1.978472 -2.435059,4.396605 -1.268438,2.418133 -3.036191,5.758831 -3.928333,7.423774 -0.892143,1.664944 -1.772486,3.383942 -1.956315,3.819999 -0.346681,0.82236 -0.996041,1.000763 -1.869468,0.513614 -1.213675,-0.67692 -3.525021,-1.196497 -6.064795,-1.363328 -2.318388,-0.152291 -2.705693,-0.117148 -2.497437,0.226622 0.374077,0.617505 8.853844,11.852028 9.431054,12.494845 0.277487,0.309035 0.504523,0.682281 0.504523,0.829442 0,0.301051 0.196645,0.248772 3.02717,-0.804764 3.966235,-1.476247 8.897939,-1.258294 12.970407,0.573227 l 1.444688,0.649721 0.576602,-0.732472 c 0.31713,-0.40286 1.095549,-1.465062 1.72981,-2.360446 z m -42.236218,-13.259997 0.720751,-0.55392 -1.005525,-1.097404 c -0.553034,-0.603571 -1.569687,-1.697042 -2.259222,-2.429931 -1.446276,-1.537204 -1.581061,-2.644614 -0.339024,-2.785389 0.588101,-0.06665 1.092175,0.351595 2.738869,2.272577 1.10996,1.29485 2.103678,2.48791 2.208268,2.651244 0.12087,0.188763 1.066334,-0.04949 2.594719,-0.653877 1.322507,-0.522968 2.446131,-0.98567 2.496938,-1.028223 0.05082,-0.04256 -1.07651,-1.614257 -2.505156,-3.492665 -2.800792,-3.682538 -4.225524,-4.85864 -6.254295,-5.162873 -4.402578,-0.660206 -6.411471,3.953198 -3.495058,8.026377 0.971151,1.356356 3.989607,4.775583 4.233825,4.795972 0.07928,0.0066 0.468491,-0.237231 0.86491,-0.541888 z m 64.482814,-1.510487 c -1.177797,-3.021081 -4.101249,-9.433683 -4.274065,-9.375181 -0.104765,0.03547 -0.770851,0.855293 -1.480189,1.821831 -3.472278,4.731257 -3.61607,5.017751 -2.51847,5.017751 0.784438,0 4.958099,2.183227 6.495567,3.397815 1.210614,0.956369 1.507047,1.077686 1.850703,0.757399 0.35283,-0.328836 0.3427,-0.551953 -0.07356,-1.619615 z m -62.629096,0.380174 c 0.08686,-0.14055 -0.521726,-1.022258 -1.352422,-1.959351 -0.830697,-0.937091 -1.856281,-2.151886 -2.279073,-2.699545 -0.703023,-0.91064 -0.808767,-0.956879 -1.237264,-0.541014 -0.43061,0.417915 -0.339654,0.599183 1.123568,2.239037 3.02346,3.388456 3.33077,3.631411 3.745191,2.960873 z m 64.982839,-0.702462 0.92854,-0.95801 -1.755913,-4.015194 c -0.965743,-2.208362 -2.09471,-4.826051 -2.508812,-5.817088 -0.414092,-0.991038 -0.827175,-1.799554 -0.917964,-1.796707 -0.09079,0.0028 -0.579205,0.638694 -1.085379,1.412985 l -0.920329,1.407807 2.289762,5.26685 c 1.259372,2.896765 2.289749,5.309712 2.289749,5.362106 0,0.3973 0.913803,-0.07188 1.680346,-0.862749 z M 66.642487,31.177899 c 3.364319,-1.405703 4.107245,-5.564448 1.416138,-7.927267 -1.195555,-1.04971 -2.029687,-1.291633 -3.775127,-1.094895 -3.838121,0.432611 -5.503126,5.043478 -2.819173,7.807062 1.48816,1.532303 3.364949,1.972708 5.178162,1.2151 z M 62.85152,29.849783 c -1.048093,-0.671483 -1.652285,-1.927188 -1.599742,-3.32478 0.131167,-3.489234 4.879552,-4.643185 6.833731,-1.660732 0.642836,0.981092 0.615531,3.054038 -0.05208,3.951328 -1.233274,1.657646 -3.502058,2.110436 -5.181942,1.034184 z m 3.98244,-0.40831 c 0.568867,-0.235536 1.391703,-1.852953 1.391703,-2.735609 0,-0.989703 -0.804239,-2.274426 -1.720375,-2.748174 -2.510399,-1.298178 -5.298159,0.721694 -4.783368,3.465789 0.204071,1.087774 1.217862,2.185864 2.270008,2.458762 0.612291,0.158808 1.862069,-0.03501 2.842032,-0.440768 z"
       id="path817"
       inkscape:connector-curvature="0"
       sodipodi:nodetypes="cccsscscssccsssscsssccsccscccscccscccccscsscsssscsscsssccssscccsccccsssccccccsscscccccccscsssssscsccscsscscssssscsccccsscsccssscccsssccssscscccsscccscccccssscscscscsscscscsscsssssccccscscscsccsssscssssscccccssccsccscsssscsccssscccscsssccscsssssssssscccscsssccssccsscccscsssccsccsscsccccscscsscccsssccscccccscsssccs" />
  </g>
</svg>
